<?xml version="1.0" encoding="UTF-8"?>
<svg id="Capa_2" data-name="Capa 2" xmlns="http://www.w3.org/2000/svg" viewBox="0 0 85.06 172.39">
  <defs>
    <style>
      .cls-1 {
        fill: #eb7709;
      }

      .cls-2 {
        fill: #592f1d;
      }

      .cls-3 {
        fill: #d47879;
      }

      .cls-4 {
        fill: #26140d;
      }

      .cls-5 {
        fill: #fff;
      }

      .cls-6 {
        fill: #bd6061;
      }

      .cls-7 {
        fill: #753d07;
      }

      .cls-8 {
        fill: #dd5d04;
      }

      .cls-9 {
        fill: #824243;
      }

      .cls-10 {
        fill: #763e27;
      }

      .cls-11 {
        fill: #5c3005;
      }

      .cls-12 {
        fill: #ffaa59;
      }

      .cls-13 {
        fill: #fe8a1b;
      }
    </style>
  </defs>
  <g id="OBJECTS">
    <g>
      <g>
        <path class="cls-8" d="M70.77,54.91c-.5-.1-1.02.07-1.5.23.5-.15.86-.8.92-1.32.05-.52-.3-1.07-.82-1.17-.16-.03-.32,0-.48.06.08-.14.15-.27.22-.4.24-.41.28-.97-.03-1.33-.24-.28-.68-.38-1.02-.22-.01,0-.02.02-.03.02.06-.17.12-.33.19-.48.23-.43.33-.95.16-1.41-.12-.33-.39-.61-.72-.74l-.79,1.17c-3.65,1.1-7.61-.53-10.98-2.31-3.31-1.75-6.24-4.14-9.45-6.07v18.1c1.42.81,2.87,1.53,4.41,2.05,6.7,2.27,14.66.23,19.43-4.99.14.26.42.47.71.43s.54-.26.61-.55c.12-.5-.34-.98-.84-1.09Z"/>
        <path class="cls-13" d="M69.2,80.63c-.61,4.81-3.05,9.33-6.64,12.56-1.08.98-2.26,1.84-3.53,2.55,2.63-8.82,3.27-18.56,3.11-27.76,1.63.29,3.11,1.16,4.27,2.35.71.73,1.3,1.57,1.74,2.48,1.17,2.39,1.38,5.17,1.05,7.82Z"/>
        <path class="cls-8" d="M66.41,70.33c-1.71,8.96-2.98,16.9-3.85,22.86-1.08.98-2.26,1.84-3.53,2.55,2.63-8.82,3.27-18.56,3.11-27.76,1.63.29,3.11,1.16,4.27,2.35Z"/>
        <path class="cls-1" d="M20.67,168.11c-2.21,2.19-4.92,4.21-8.03,4.28-3.1.08-6.37-2.67-5.76-5.72.03-.15.07-.29.12-.43.87-2.86,4.49-3.95,7.26-5.32,5.81-2.87,9.53-9.08,10.37-15.5.84-6.43-.94-12.98-3.94-18.72-.58-1.11-1.21-2.19-1.87-3.25-2.22-3.55-4.85-6.85-7.6-10.03-.66-.78-1.34-1.55-2.02-2.32,1.2.03,2.45.08,3.72.14,1.74.08,3.5.16,5.14.2,3.39,2.81,6.27,6.23,8.5,10.02.8,1.36,1.52,2.78,2.16,4.23,1.86,4.26,2.96,8.86,3.18,13.51.49,10.63-3.69,21.39-11.23,28.91Z"/>
        <path class="cls-13" d="M18.95,163.35c-2.21,2.19-4.92,4.21-8.03,4.28-1.4.04-2.83-.5-3.92-1.39.87-2.86,4.49-3.95,7.26-5.32,5.81-2.87,9.53-9.08,10.37-15.5.84-6.43-.94-12.98-3.94-18.72-.58-1.11-1.21-2.19-1.87-3.25-2.22-3.55-4.85-6.85-7.6-10.03-.66-.78-1.34-1.55-2.02-2.32,1.2.03,2.45.08,3.72.14,1.74.08,3.5.16,5.14.2,3.39,2.81,6.27,6.23,8.5,10.02.8,1.36,1.52,2.78,2.16,4.23.82,2.84,1.32,5.79,1.46,8.75.49,10.63-3.69,21.39-11.23,28.91Z"/>
        <path class="cls-13" d="M55.52,78.45c-3.06,5.41-8.85,9.74-15.05,10.02-6.12,9.95-13.11,19.47-21.28,27.8h-5.92c-2.73-2.15-4.6-5.34-5.21-8.77-.15.28-.44.5-.76.47-.64-.07-1.05-.69-1.35-1.26-1.24-2.43-1.86-5.17-1.82-7.9-.13.2-.31.35-.53.43-.65.21-.91-.24-1.17-.87-4.14-10.17-2.78-24.18,2.43-33.97-.3.14-.71.15-.97-.07-.52-.46-.53-1.26-.44-1.95.33-2.48,1.42-4.85,3.07-6.73-.16.02-.34,0-.49-.06-.64-.26-.96-1.02-.91-1.7.04-.69.38-1.32.73-1.91,1.84-3.09,4.28-5.82,7.15-7.99,1.18-.9,2.43-1.7,3.74-2.4,1.73.46,3.2,1.4,4.38,2.75h27.36c1.07,1.15,2.09,2.36,3.05,3.62,0,.01.01.02.02.03.11.16.23.32.35.49,2.61,3.59,4.64,7.59,5.71,11.89,1.49,6.03.97,12.67-2.09,18.08Z"/>
        <path class="cls-8" d="M26.56,121.46c-2.42,1.15-5.06,1.84-7.74,1.99-2.22-3.55-5.07-6.27-7.82-9.45.42-.8,1.2-2.1,1.86-2.71.02-.02.04-.04.06-.05,1.74.08,3.5.16,5.14.2,3.39,2.81,6.27,6.23,8.5,10.02Z"/>
        <path class="cls-8" d="M9.22,102.36c.69,1.56,2.08,2.79,3.71,3.29,1.63.5,2.78.63,4.22-.27-1.14.97-1.08,1.08-1.9,1.72s-1.34,1.47-1.91,2.34c-.57.88-.77,2.1-.16,2.95.61.85,1.84,1.05,2.84.73s1.8-1.04,2.55-1.77c3.58-3.53,6.47-7.76,8.45-12.39-5.79,1-12.08,1.98-17.79,3.4Z"/>
        <path class="cls-8" d="M53.75,55.54c.91-.06,1.78.76,1.78,1.67,0,.91-.88,1.72-1.79,1.65-1.49,4.91-4.43,9.27-8.76,12.01-4.33,2.74-9.66,3.88-14.73,3.13-2.85-.42-5.59-1.4-8.43-1.89s-5.93-.43-8.38,1.09c2.99-4.4,8.09-6.91,13.19-8.41,5.1-1.5,10.44-2.19,15.46-3.95,4.1-1.44,7.95-3.59,11.32-6.33.07.25.28.77.35,1.02Z"/>
        <path class="cls-8" d="M49.81,44c1.07,1.15,2.09,2.36,3.05,3.62-2,2.98-5.33,5.44-8.75,6.54-2.55,3.79-7.13,3.93-11.11,3.05-3.97-.88-7.45-3.44-10.83-5.7.14.37-.24.8-.64.78s-.72-.37-.84-.74c-.09-.28-.16-.43-.18-.65-.07.3-.33.55-.64.58-.4.03-.79-.29-.86-.69s-.05-.88.31-1.07c-2.31-1.36-4.45-3.92-5.34-6.44,1.18-.9,2.37-2.19,3.68-2.89,1.73.46,3.61,2.26,4.79,3.61h27.36Z"/>
        <path class="cls-8" d="M51.9,48.48c-.22-.11-.39-.29-.35-.49.11.16.23.32.35.49Z"/>
        <path class="cls-6" d="M77.76,46.02l-.59,3.56s-3.07,5.78-10.3,7.17l2.91-11.57,4.85-7.37c3.43,1.87,5.59,3.38,3.12,8.21Z"/>
        <path class="cls-11" d="M85.06,2.25c-18,37.75-25.2,101.78-25.2,101.78-8.43,15.66-14.7,33.19-18.47,50.57-4.21.93-8.83-.28-12.04-3.15.17-.51.35-1.02.51-1.53,6.68-19.88,10.73-38.94,12.7-57.38C54.8,77.83,70,0,70,0l8.61,1.29,6.45.96Z"/>
        <path class="cls-7" d="M78.61,1.29c-4.85,10.97-8.86,23.77-12.12,36.44-1.79,6.95-3.34,13.86-4.69,20.4-3.24,15.77-5.23,29.43-6.16,36.44-.43,3.2-.63,5.01-.63,5.01-2.23,4.15-4.31,8.43-6.23,12.81-5.34,12.13-9.46,24.99-12.24,37.76-2.2.49-4.51.39-6.68-.23,3.8-11.29,6.74-22.32,8.94-33.13.78-3.84,1.47-7.65,2.06-11.43.41-2.57.77-5.13,1.09-7.67.22-1.72.43-3.44.61-5.15,2.59-3.11,5.32-9.06,8-16.5,1.95-5.4,3.88-11.58,5.72-18.04,1.95-6.85,3.81-14.01,5.49-20.87C66.62,17.31,70,0,70,0l8.61,1.29Z"/>
        <path class="cls-11" d="M57.43,95.6c-1.8,5.73-3.87,11.27-6.71,16.56-.65.05-1.3.12-1.94.23-3.64.59-7.11,2.1-9.98,4.4.78-3.84,1.47-7.65,2.06-11.43.68-.62,1.46-1.14,2.3-1.52.53-1.32,1.17-2.71,1.7-4.03-1-1.93-.61-4.5,1.19-5.73s4.49-.89,5.93.75c1.11-.55,2.47-.63,3.66-.26.68.2,1.3.55,1.79,1.03Z"/>
        <path class="cls-11" d="M48.26,89.02c-1.68,3.16-3.93,5.98-6.31,8.67.22-1.72.43-3.44.61-5.15,2.59-3.11,5.32-9.06,8-16.5.15.38.23.8.28,1.19.49,4.06-.66,8.18-2.58,11.79Z"/>
        <path class="cls-11" d="M70.23,38.22c-1.83,7.24-3.67,14.47-5.51,21.71-1.06-.47-2.05-1.06-2.92-1.8-.8-.66-1.5-1.44-2.08-2.33-1,.93-2.17,1.68-3.44,2.2,1.95-6.85,3.81-14.01,5.49-20.87.21,0,.43.03.65.06,1.35.18,2.71.36,4.07.54,1.25.16,2.49.33,3.74.49Z"/>
        <path class="cls-6" d="M61.29,106.05c.01-3.44.02-6.89.03-10.33-.82-.43-1.77-.56-2.66-.32-.89.24-1.66,1.04-1.66,1.97,0,.92.96,1.78,1.85,1.51.03,2.31.25,4.73.27,7.04.72.14,1.44,0,2.17.14Z"/>
        <path class="cls-3" d="M15.06,110.91c-1.26,1.32-2.52,2.71-3.17,4.41-.65,1.7-.57,3.8.67,5.14,1.53,1.65,4.13,1.58,6.37,1.29,6.93-.91,13.74-2.8,20.16-5.57,0,0,3.78-6.18,14.45-5.68l7.79-4.09c-.19-.69-.58-1.37-1.22-1.69-.64-.32-1.46-.29-2.02.15-.56.44-.77,1.3-.41,1.91-2.42.57-5.1,1.26-7.53,1.83,3.14-2.28,6.38-4.77,9.52-7.05-.03-.88-.27-1.8-1-2.3-.73-.5-1.79-.53-2.46.04-.67.57-.76,1.75-.11,2.34-2.47,1.55-4.9,3.3-7.37,4.85,2.27-3.02,4.36-6,6.63-9.02-.17-.87-1.28-1.78-2.16-1.85-.89-.08-1.79.49-2.11,1.32-.32.83-.03,1.85.68,2.39-1.96,2.42-3.97,4.86-5.92,7.28,1.37-3.59,2.62-6.94,3.99-10.52-.63-.6-1.64-1.01-2.51-.92-.65.06-1.28.35-1.7.85s-.59,1.21-.38,1.82c.21.61.84,1.08,1.49,1.03-1.43,2.41-2.64,4.99-4.06,7.4-1.73.15-3.3.94-4.55,2.14-1.25,1.21-2.07,2.85-2.28,4.57-3.97.99-7.75,2-11.72,2.99.24-1.36.49-2.7.72-4.07-3.16-.34-6.64-.64-9.79-.98Z"/>
        <path class="cls-13" d="M69.33,32.29c-2.3,1.61-5.14,2.21-7.9,2.66-.42,3.29-2.65,6.57-5.45,8.33.14.31.29.63.31.97s-.11.72-.42.88c-.24.13-.55.09-.76-.09-.1-.09-.19-.16-.25-.25.02.3.02.61-.07.89-.13.38-.46.73-.86.74s-.96-.34-.78-.7c-1.98,3.02-5.35,5.5-8.79,6.61-2.55,3.78-7.13,3.93-11.1,3.05s-7.45-3.44-10.84-5.7c.15.37-.24.79-.63.77-.4-.02-.72-.36-.84-.74-.09-.27-.17-.42-.19-.64-.06.3-.33.55-.64.58-.4.03-.78-.3-.85-.69-.07-.4-.05-.88.3-1.07-2.71-1.59-4.7-4.35-5.37-7.42-2.62-.06-5.3-.58-7.52-1.98-2.21-1.4-3.84-3.96-3.51-6.56.34-2.61,2.63-4.72,5.21-5.23s5.3.41,7.35,2.06c0,0,.01-.01.02-.03,4.15-7.07,11.72-12.18,19.88-13.12,2.29-.26,4.62-.21,6.9.14,5.83.89,11.38,3.7,15.44,7.98,2.04-2.19,5.28-3.84,8.26-3.74,2.99.11,5.97,2.2,6.53,5.13.52,2.75-1.14,5.57-3.43,7.17Z"/>
        <path class="cls-6" d="M77.76,37.79c-2.5-.83-4.92-1.99-6.81-3.7-.87.14-1.6.88-1.73,1.75-.13.87.36,1.79,1.15,2.17.79.38,1.61.25,2.21-.39,1.35,1.8,3.14,3.26,5.18,4.19.81-1.19.78-2.53,0-4.03Z"/>
        <path class="cls-6" d="M77.76,42.07c-2.29-.81-4.49-1.93-6.23-3.5-.87.14-1.6.88-1.73,1.75-.13.87.36,1.79,1.15,2.17.79.38,1.61.25,2.21-.39,1.22,1.62,2.8,2.98,4.59,3.91.7-1.03.89-2.27,0-3.95Z"/>
        <path class="cls-6" d="M77.18,45.74c-2.07-.79-4.05-1.84-5.64-3.28-.87.14-1.6.88-1.73,1.75-.13.87.36,1.79,1.15,2.17.79.38,1.61.25,2.21-.39,1.08,1.44,2.46,2.67,4,3.58.81-.91.78-2.2,0-3.83Z"/>
        <g>
          <path class="cls-3" d="M69.86,41.36c-.33.81-1.22,1.36-2.09,1.29-.88-.07-1.52-.59-1.71-1.45-2.3.96-4.86,1.31-7.3.91-.68-.11-1.34-.27-1.99-.5-.06.23-.12.46-.2.69-.78,2.63-2.34,5.03-4.46,6.79-1.18-1.21-1.92-2.3-2.27-3.95,2.18-.64,4.15-2.65,5.09-4.72-.7-.82-.4-2.26.56-2.74.88-.44,1.94-.08,2.89.21,3.44,1.09,7.35,1.82,10.87,1.09.68.55.94,1.57.61,2.38Z"/>
          <path class="cls-3" d="M73.05,49.94c-.58.65-1.61.87-2.41.51s-1.22-1.07-1.11-1.95c-2.41.13-4.86-.37-6.97-1.49-.68-.36-1.32-.78-1.91-1.26-.15.22-.3.44-.46.65-1.63,2.18-3.9,3.88-6.45,4.81-.71-1.53-1.04-2.81-.81-4.48,2.27.13,4.8-1.09,6.39-2.73-.38-1,.38-2.26,1.45-2.38.98-.12,1.86.57,2.65,1.18,2.87,2.18,6.3,4.19,9.87,4.69.45.76.35,1.8-.24,2.45Z"/>
          <path class="cls-3" d="M71.32,56.42c-.63.45-1.54.43-2.16-.03-.61-.47-.83-1.16-.57-1.89-1.92-.34-3.76-1.13-5.28-2.32-.66-.51-1.26-1.11-1.78-1.77-.04.04-.08.08-.13.11-1.87,1.75-4.3,2.89-6.84,3.21-.3-1.45-.33-2.61.19-4,1.91.57,4.32.01,5.99-1.07-.12-.93.77-1.86,1.71-1.76.86.09,1.48.86,2.03,1.53,2.03,2.42,4.57,4.82,7.52,5.95.24.73-.05,1.6-.68,2.04Z"/>
          <path class="cls-3" d="M69.78,60.43c.08.77-.39,1.56-1.09,1.86-.71.3-1.6.1-2.11-.49-.5-.58-.57-1.3-.17-1.96-1.7-.69-3.25-1.76-4.47-3.13.01,0,0-.01,0-.01-.62-.7-1.15-1.48-1.57-2.33-.1.06-.2.12-.3.17-2.17,1.25-4.72,1.83-7.21,1.62.01-1.48.21-2.62,1.01-3.87,1.76.95,4.23.91,6.09.2.07-.94,1.14-1.65,2.04-1.36.82.27,1.26,1.14,1.67,1.91,1.47,2.8,3.46,5.67,6.11,7.39Z"/>
          <path class="cls-3" d="M47.47,54.68c1.63-2.84,2.46-6.13,2.37-9.4,2.97,2.26,5.64,4.99,7.42,8.27-2.33,1.62-4.73,3.56-7.06,5.18-.9-1.35-1.83-2.7-2.73-4.05Z"/>
          <g>
            <path class="cls-6" d="M62.56,47.01c-.68-.36-1.32-.78-1.91-1.26-.15.22-.3.44-.46.65-.04-.17-.06-.35-.07-.52-.01-.54.11-1.07.24-1.59.06.66.52,1.27,1.14,1.5.29.12.63.16.86.37.24.21.29.55.2.85Z"/>
            <path class="cls-6" d="M58.76,42.11c-.68-.11-1.34-.27-1.99-.5-.06.23-.12.46-.2.69-.15-.14-.28-.32-.37-.51-.29-.58-.32-1.25-.25-1.89.61.98,1.75,1.61,2.9,1.63.04.2,0,.4-.09.58Z"/>
            <path class="cls-6" d="M63.92,51.5c.05.27-.15.54-.41.64-.06.02-.13.04-.2.04-.66-.51-1.26-1.11-1.78-1.77-.04.04-.08.08-.13.11-.1-.48-.03-.99.19-1.42.3,1.13,1.21,2.07,2.33,2.4Z"/>
            <path class="cls-6" d="M62.04,56.57c-.02.05-.05.09-.1.13-.62-.7-1.15-1.48-1.57-2.33-.1.06-.2.12-.3.17.01-.62.21-1.23.59-1.73-.16.89.14,1.85.76,2.51.18.18.37.34.51.54.14.21.22.48.11.71Z"/>
          </g>
        </g>
        <path class="cls-13" d="M54.13,57.46c-.24.17-.59.11-.83-.05-1.81,6.83-7.91,12.33-14.9,13.43-2.96.46-5.98.2-8.97-.05s-6.01-.47-8.96.08-5.85,1.96-7.58,4.41c-.59.83-1.15,1.63-1.62,2.51-.09.13-.16.27-.23.41-1.53-3.44-2.49-7.22-2.16-10.97s2.07-7.48,5.12-9.69c3.08-2.24,7.12-2.72,10.93-2.53,3.81.2,7.58,1,11.4,1.01s8.07-.37,10.8-3.04c.05-.47.11-.94.16-1.41.17,0,.35.01.52.07.17.05.33.13.46.25.36.33.52.84.51,1.33,0,.16.03.33.05.51,0,0,0-.03.02-.04.23-.3.66-.42,1.01-.28.44.17.66.69.64,1.17,0,.15,0,.3,0,.46.11-.13.23-.23.39-.28.5-.14,1.08.18,1.27.67.19.48.17,1.23-.2,1.59.35-.37.73-.76,1.22-.9s1.12.08,1.25.57c.07.28-.05.6-.29.77Z"/>
        <g>
          <path class="cls-8" d="M30.69,53.92c1.05.22,2.14-.1,3.12-.54s1.91-1.01,2.93-1.32c1.26-.39,2.61-.37,3.92-.59,1.31-.21,2.67-.73,3.38-1.84-.08,1.26-1.42,2.12-2.65,2.39s-2.54.16-3.76.49c-1.18.32-2.21,1.03-3.34,1.49-1.13.46-2.6.61-3.6-.08Z"/>
          <path class="cls-6" d="M40,47.95c.3.91-.69,3.44-2.73,4.12-2.04.68-4.36-.74-4.66-1.65-.3-.91,1.18-1.97,3.23-2.65,2.04-.68,3.87-.73,4.17.18Z"/>
          <path class="cls-9" d="M39.13,49.71c.19.31.07.75-.22.97-.29.22-.7.24-1.03.1-.34-.14-.6-.41-.8-.72-.09-.15-.17-.31-.19-.48-.01-.17.05-.36.2-.46.14-.09.31-.09.48-.07.34.03.67.12.99.24.23.09.46.21.58.42Z"/>
          <path class="cls-9" d="M34.35,51.31c.04.36.4.64.76.64s.7-.23.89-.54.24-.69.2-1.05c-.01-.17-.05-.35-.14-.5-.09-.15-.26-.26-.43-.25-.16,0-.3.12-.42.23-.25.23-.47.5-.64.78-.13.21-.24.44-.21.68Z"/>
        </g>
        <path class="cls-8" d="M36.58,32.41c.25-1.15.74-2.25,1.44-3.19.24-.32.51-.64.88-.82.36-.18.83-.2,1.15.05.37.29.42.85.26,1.29-.17.44-.51.78-.84,1.11.07-.38-.01-.85.06-1.24-.24-.17-.58-.12-.82.03-.25.16-.42.4-.58.64-.49.71-1.05,1.41-1.53,2.12Z"/>
        <path class="cls-8" d="M32.89,30.84c-.21-.38-.42-.76-.63-1.15-.38-.69-.78-1.4-1.36-1.94s-1.41-.88-2.18-.69-1.39,1.02-1.16,1.78c-.59-.23-1.24-.61-1.86-.53-.62.09-1.24.55-1.29,1.17-.05.62.46,1.17,1.04,1.38.58.21,1.22.16,1.84.1-.28.02-.56-.09-.83-.17-.28-.07-.54-.26-.63-.53-.17-.52.39-1.04.93-1.04.54,0,1.03.32,1.47.64-.28-.48.08-1.29.58-1.54.49-.25,1.11-.15,1.6.12.48.28.85.71,1.21,1.14.35.43.83.94,1.28,1.26Z"/>
        <path class="cls-8" d="M20.08,34.74c2.33-.97,5.08-.87,7.33.27,2.25,1.14,3.97,3.29,4.57,5.74.02-2.71-1.56-5.31-3.96-6.58-2.4-1.26-5.72-.97-7.95.57Z"/>
        <path class="cls-8" d="M18.4,40.39c.47,2.66,2.49,4.99,5.06,5.83,2.57.85,5.57.18,7.54-1.68-1.66,2.5-5.13,3.8-7.98,2.85-2.84-.95-4.8-4.02-4.62-7.01Z"/>
        <path class="cls-8" d="M47.41,30.86c-2.3,0-4.59.86-6.33,2.37-1.74,1.5-2.92,3.64-3.27,5.92-.44-2.56.45-5.32,2.42-7.02,1.97-1.7,4.71-2.07,7.18-1.26Z"/>
        <path class="cls-8" d="M51.57,38.23c-.93,3.34-4.07,5.95-7.52,6.25,1.88.69,4.1.32,5.62-.98,1.52-1.3,2.29-3.31,1.9-5.27Z"/>
        <g>
          <path class="cls-2" d="M30.95,42.8c-1.87,2.49-5.66,3.07-8.37,1.53s-3.74-5.51-2.56-8.4h.01c2.31-1.1,5.18-.93,7.34.43,1.9,1.2,3.21,3.27,3.51,5.48.05.32.07.64.07.96Z"/>
          <path class="cls-10" d="M30.88,41.84c-1.98,2.03-5.41,2.41-7.9.99-2.26-1.29-3.35-4.27-2.96-6.9h.01c2.31-1.1,5.18-.93,7.34.43,1.9,1.2,3.21,3.27,3.51,5.48Z"/>
          <path class="cls-4" d="M25.65,39.96c0,.51-.41.92-.92.92s-.92-.41-.92-.92.41-.92.92-.92.92.41.92.92Z"/>
        </g>
        <g>
          <path class="cls-2" d="M47.51,41.94c-2.71,1.54-6.5.96-8.37-1.53v-.08c.04-2.53,1.42-5,3.57-6.36,1.83-1.14,4.15-1.45,6.22-.86.39.12.77.26,1.14.44,1.17,2.88.14,6.86-2.56,8.39Z"/>
          <path class="cls-10" d="M46.07,40.54c-2.12,1.21-4.92,1.11-6.93-.21.04-2.53,1.42-5,3.57-6.36,1.83-1.14,4.15-1.45,6.22-.86.64,2.74-.44,6.06-2.86,7.43Z"/>
          <path class="cls-4" d="M44.45,37.57c0,.51.41.92.92.92s.92-.41.92-.92-.41-.92-.92-.92-.92.41-.92.92Z"/>
        </g>
        <path class="cls-8" d="M14.39,36.33c-.35.75-.29,1.64.14,2.36-1.72-.14-3.47-.28-5.1-.82-1.62-.54-3.14-1.55-3.84-2.99-.7-1.43-.4-3.32.98-4.25.85-.58,1.96-.74,3.02-.75,2.17-.02,4.35.54,6.19,1.59-.39,1.25-.78,2.5-1.17,3.75-.47-.33-.93-.66-1.4-.99.03.59.36,1.16.89,1.51-.35.42-.7.84-1.05,1.26.45-.22.89-.44,1.34-.66Z"/>
        <path class="cls-8" d="M61.56,31.34c.55.69.69,1.61.38,2.45,1.87-.54,3.76-1.1,5.43-2.04,1.67-.94,3.11-2.32,3.56-3.96.45-1.63-.3-3.49-2.03-4.13-1.06-.39-2.32-.3-3.5-.06-2.39.49-4.66,1.57-6.46,3.08.71,1.19,1.42,2.37,2.13,3.56.44-.45.88-.89,1.31-1.34.1.61-.14,1.27-.64,1.76l1.44,1.04-1.62-.36Z"/>
        <path class="cls-12" d="M42.53,15.75c-18.63,1.53-26.32,12.31-26.78,12.98,4.15-7.07,11.72-12.18,19.88-13.12,2.29-.26,4.62-.21,6.9.14Z"/>
      </g>
      <path class="cls-1" d="M54.13,57.46c-.24.17-.59.11-.83-.05-1.81,6.83-7.91,12.33-14.9,13.43-2.96.46-5.98.2-8.97-.05s-6.01-.47-8.96.08-5.85,1.96-7.58,4.41c-.59.83-1.15,1.63-1.62,2.51.2-3.23,1.98-6.41,4.49-8.54,3.44-2.89,8-4.11,12.47-4.6,4.47-.5,9-.34,13.46-.9,1.71-.21,3.47-.56,4.84-1.6,1.55-1.18,2.39-3.15,2.49-5.09.1-1.87-.42-3.72-1.21-5.42.17.05.33.13.46.25.36.33.52.84.51,1.33,0,.16.03.33.05.51,0,0,0-.03.02-.04.23-.3.66-.42,1.01-.28.44.17.66.69.64,1.17,0,.15,0,.3,0,.46.11-.13.23-.23.39-.28.5-.14,1.08.18,1.27.67.19.48.17,1.23-.2,1.59.35-.37.73-.76,1.22-.9s1.12.08,1.25.57c.07.28-.05.6-.29.77Z"/>
      <path class="cls-13" d="M49.38,80.15c-.31,2.27-1.12,4.43-2.02,6.53-3.83,8.89-10.68,19.07-18.09,26.43-1.51,1.51-3.04,2.89-4.58,4.13-.68.55-1.51.39-1.93-.38-.38-.69-.14-1.63.47-2.11-.53.34-1.01.69-1.64.77-.72.09-1.54-.19-1.86-.84-.14-.28-.13-.62-.02-.91-.35.26-.72.48-1.15.6-.78.2-1.72.04-2.19-.62-.28-.39-.29-.94-.09-1.36-.44.16-1,.15-1.46.03-3.68-.89,1.28-4.73,2.15-5.7.38-.42.76-.85,1.14-1.29,1.37-1.56,2.72-3.15,4.18-4.62-1.26,1.27-2.63,2.41-4.23,3.23-.13.07-.27.13-.41.19-2.54,1.15-5.75,1.17-7.84-.67-3.59-3.17-2.64-9.77-1.79-13.93.62-3.07,1.7-6.1,3.25-8.84,0,0,.01-.01.03-.04,1.61-2.86,3.74-5.41,6.4-7.36,5.33-3.91,12.79-6.08,19.37-5.86,1.49.04,2.94.29,4.3.72h.02c2.34.74,4.39,2.02,5.84,3.77.39.47.74.98,1.04,1.52,1.01,1.84,1.45,4.06,1.11,6.61Z"/>
      <path class="cls-8" d="M30.28,90.09c-2.81,5.95-7.02,11.25-12.17,15.34,1.37-1.56,2.72-3.15,4.18-4.62-1.26,1.27-2.63,2.41-4.23,3.23-.13.07-.27.13-.41.19.13-.13.26-.26.4-.37,4.85-3.83,9-8.51,12.23-13.77Z"/>
      <circle class="cls-5" cx="44.82" cy="37.34" r=".24"/>
      <path class="cls-5" d="M25.32,39.34c0,.16-.13.3-.3.3s-.3-.13-.3-.3.13-.3.3-.3.3.13.3.3Z"/>
      <path class="cls-1" d="M49.38,80.15c-.31,2.27-1.12,4.43-2.02,6.53-3.83,8.89-10.68,19.07-18.09,26.43h-.07c19.21-24.74,18.03-41.09,18.03-41.09.39.47.74.98,1.04,1.52,1.01,1.84,1.45,4.06,1.11,6.61Z"/>
      <path class="cls-12" d="M41.37,68.25c-16.7-2.25-29.35,11.69-30.07,12.5,1.61-2.86,3.74-5.41,6.4-7.36,5.33-3.91,12.79-6.08,19.37-5.86,1.49.04,2.94.29,4.3.72Z"/>
    </g>
  </g>
</svg>