<?xml version="1.0" encoding="UTF-8"?>
<svg id="Layer_1" data-name="Layer 1" xmlns="http://www.w3.org/2000/svg" viewBox="0 0 649.64 476.98">
  <defs>
    <style>
      .cls-1 {
        fill: #500000;
      }

      .cls-2 {
        fill: #231f20;
      }

      .cls-3 {
        fill: #fff;
      }

      .cls-4 {
        fill: #b1b3b6;
      }
    </style>
  </defs>
  <g>
    <path class="cls-2" d="M212.16,264.69h-2.24v-11.77h-4.03v-1.92h10.29v1.92h-4.03v11.77Z"/>
    <path class="cls-2" d="M226.99,264.69h-7.74v-13.69h7.74v1.89h-5.5v3.73h5.16v1.87h-5.16v4.3h5.5v1.9Z"/>
    <path class="cls-2" d="M240.99,264.69h-2.57l-3.43-5.6-3.46,5.6h-2.4l4.54-7.1-4.25-6.59h2.49l3.16,5.18,3.17-5.18h2.42l-4.28,6.63,4.61,7.06Z"/>
    <path class="cls-2" d="M252.28,264.69l-1.37-3.8h-5.23l-1.34,3.8h-2.36l5.12-13.75h2.43l5.12,13.75h-2.38ZM250.33,258.96l-1.28-3.73c-.09-.25-.22-.64-.39-1.18-.17-.54-.28-.93-.34-1.18-.17.77-.42,1.61-.74,2.52l-1.24,3.57h3.99Z"/>
    <path class="cls-2" d="M265.32,260.98c0,1.22-.44,2.17-1.32,2.87-.88.69-2.09,1.04-3.64,1.04s-2.81-.24-3.8-.72v-2.12c.62.29,1.29.52,1.99.69.7.17,1.36.25,1.96.25.89,0,1.54-.17,1.96-.51.42-.34.63-.79.63-1.36,0-.51-.19-.95-.58-1.3-.39-.36-1.19-.78-2.4-1.26-1.25-.51-2.13-1.08-2.64-1.73-.51-.65-.77-1.43-.77-2.34,0-1.14.41-2.04,1.22-2.7s1.9-.98,3.27-.98,2.62.29,3.91.86l-.71,1.83c-1.22-.51-2.3-.77-3.26-.77-.72,0-1.27.16-1.65.47-.37.32-.56.73-.56,1.25,0,.36.08.66.22.91.15.25.4.49.74.72.34.22.96.52,1.85.89,1,.42,1.74.81,2.21,1.17.47.36.81.77,1.03,1.23.22.46.33.99.33,1.61Z"/>
    <path class="cls-2" d="M283.36,264.69l-1.37-3.8h-5.23l-1.34,3.8h-2.36l5.12-13.75h2.43l5.12,13.75h-2.38ZM281.4,258.96l-1.28-3.73c-.09-.25-.22-.64-.39-1.18-.17-.54-.28-.93-.34-1.18-.17.77-.42,1.61-.74,2.52l-1.24,3.57h3.99Z"/>
    <path class="cls-2" d="M287.6,261.07c0-.82.2-1.53.6-2.14s1.12-1.21,2.16-1.81c-.59-.69-1-1.28-1.21-1.76-.21-.48-.32-.97-.32-1.48,0-.95.34-1.7,1.02-2.25.68-.55,1.59-.82,2.73-.82s1.97.27,2.6.8c.63.53.95,1.25.95,2.16,0,.71-.21,1.36-.63,1.94-.42.58-1.12,1.16-2.11,1.74l3.24,3.13c.51-.67.93-1.65,1.26-2.94h2.27c-.44,1.77-1.14,3.22-2.1,4.33l2.82,2.72h-2.84l-1.4-1.36c-.64.51-1.32.9-2.04,1.16s-1.52.39-2.39.39c-1.44,0-2.56-.34-3.38-1.02-.82-.68-1.23-1.61-1.23-2.79ZM292.31,262.99c1.14,0,2.12-.33,2.93-1l-3.59-3.53c-.66.42-1.12.82-1.37,1.19-.25.37-.38.79-.38,1.27,0,.61.22,1.11.65,1.49.43.38,1.02.58,1.75.58ZM290.92,253.95c0,.39.1.76.31,1.11s.5.72.88,1.11c.71-.4,1.2-.77,1.48-1.12s.43-.74.43-1.17c0-.41-.14-.73-.41-.97-.27-.24-.63-.37-1.08-.37-.49,0-.88.13-1.17.38s-.44.59-.44,1.02Z"/>
    <path class="cls-2" d="M309.57,264.69l-3.97-11.43h-.08c.11,1.7.16,3.29.16,4.77v6.66h-2.03v-13.69h3.16l3.8,10.89h.06l3.91-10.89h3.17v13.69h-2.15v-6.77c0-.68.02-1.57.05-2.66.03-1.09.06-1.75.09-1.98h-.07l-4.11,11.41h-1.98Z"/>
    <path class="cls-2" d="M338.98,251.01v8.86c0,1.01-.22,1.9-.65,2.65-.43.76-1.06,1.34-1.88,1.75-.82.41-1.8.61-2.94.61-1.7,0-3.02-.45-3.96-1.35-.94-.9-1.41-2.13-1.41-3.71v-8.82h2.25v8.66c0,1.13.26,1.96.79,2.5.52.54,1.33.81,2.42.81,2.11,0,3.16-1.11,3.16-3.32v-8.64h2.24Z"/>
    <path class="cls-2" d="M354.85,264.69h-2.74l-6.73-10.91h-.07l.05.61c.09,1.16.13,2.22.13,3.18v7.12h-2.03v-13.69h2.72l6.71,10.85h.06c-.01-.14-.04-.67-.08-1.57s-.06-1.61-.06-2.11v-7.17h2.05v13.69Z"/>
    <path class="cls-2" d="M359.42,264.69v-13.69h2.24v13.69h-2.24Z"/>
    <path class="cls-2" d="M374.03,251.01h2.32l-4.79,13.69h-2.36l-4.78-13.69h2.3l2.86,8.51c.15.41.31.93.48,1.57.17.64.28,1.12.33,1.43.08-.47.21-1.02.38-1.65.17-.62.31-1.09.41-1.39l2.86-8.47Z"/>
    <path class="cls-2" d="M386.86,264.69h-7.74v-13.69h7.74v1.89h-5.5v3.73h5.16v1.87h-5.16v4.3h5.5v1.9Z"/>
    <path class="cls-2" d="M393.02,259.23v5.47h-2.24v-13.69h3.87c1.77,0,3.07.33,3.92.99.85.66,1.27,1.66,1.27,3,0,1.7-.89,2.92-2.66,3.64l3.87,6.06h-2.55l-3.28-5.47h-2.21ZM393.02,257.37h1.55c1.04,0,1.8-.19,2.27-.58.47-.39.7-.96.7-1.72s-.25-1.33-.76-1.67-1.27-.5-2.28-.5h-1.48v4.47Z"/>
    <path class="cls-2" d="M411.89,260.98c0,1.22-.44,2.17-1.32,2.87-.88.69-2.09,1.04-3.64,1.04s-2.81-.24-3.8-.72v-2.12c.62.29,1.29.52,1.99.69.7.17,1.36.25,1.96.25.89,0,1.54-.17,1.96-.51.42-.34.63-.79.63-1.36,0-.51-.19-.95-.58-1.3-.39-.36-1.19-.78-2.4-1.26-1.25-.51-2.13-1.08-2.64-1.73-.51-.65-.77-1.43-.77-2.34,0-1.14.41-2.04,1.22-2.7s1.9-.98,3.27-.98,2.62.29,3.91.86l-.71,1.83c-1.22-.51-2.3-.77-3.26-.77-.72,0-1.27.16-1.65.47-.37.32-.56.73-.56,1.25,0,.36.08.66.22.91.15.25.4.49.74.72.34.22.96.52,1.85.89,1,.42,1.74.81,2.21,1.17.47.36.81.77,1.03,1.23.22.46.33.99.33,1.61Z"/>
    <path class="cls-2" d="M415.49,264.69v-13.69h2.24v13.69h-2.24Z"/>
    <path class="cls-2" d="M427.03,264.69h-2.24v-11.77h-4.03v-1.92h10.29v1.92h-4.03v11.77Z"/>
    <path class="cls-2" d="M437.98,257.25l3.24-6.25h2.43l-4.56,8.38v5.31h-2.25v-5.23l-4.54-8.46h2.43l3.24,6.25Z"/>
  </g>
  <g>
    <path class="cls-2" d="M265.21,306.55h-14.03v-25.17h14.03v2.6h-11.11v8.11h10.43v2.58h-10.43v9.26h11.11v2.62Z"/>
    <path class="cls-2" d="M277.27,306.9c-2.73,0-4.85-.84-6.35-2.52-1.5-1.68-2.25-4.06-2.25-7.14s.76-5.6,2.28-7.32c1.52-1.72,3.69-2.58,6.5-2.58.91,0,1.81.1,2.72.29.91.2,1.62.42,2.13.69l-.88,2.43c-.63-.25-1.32-.46-2.07-.63-.75-.17-1.41-.25-1.98-.25-3.83,0-5.75,2.45-5.75,7.33,0,2.32.47,4.1,1.4,5.34.94,1.24,2.32,1.86,4.16,1.86,1.57,0,3.19-.34,4.84-1.02v2.53c-1.26.65-2.85.98-4.77.98Z"/>
    <path class="cls-2" d="M302.17,297.1c0,3.08-.77,5.48-2.32,7.21s-3.69,2.59-6.42,2.59c-1.69,0-3.19-.4-4.5-1.19-1.31-.79-2.32-1.93-3.03-3.41-.71-1.48-1.07-3.21-1.07-5.2,0-3.08.77-5.47,2.31-7.19,1.54-1.72,3.67-2.57,6.41-2.57s4.74.88,6.29,2.63c1.56,1.76,2.33,4.13,2.33,7.13ZM287.79,297.1c0,2.41.48,4.25,1.45,5.51.96,1.26,2.38,1.89,4.25,1.89s3.29-.63,4.26-1.89,1.46-3.1,1.46-5.52-.49-4.22-1.46-5.47c-.97-1.25-2.4-1.87-4.3-1.87s-3.28.61-4.24,1.84-1.43,3.06-1.43,5.49Z"/>
    <path class="cls-2" d="M309.4,306.55h-2.86v-26.79h2.86v26.79Z"/>
    <path class="cls-2" d="M331.12,297.1c0,3.08-.77,5.48-2.32,7.21s-3.69,2.59-6.42,2.59c-1.69,0-3.19-.4-4.5-1.19-1.31-.79-2.32-1.93-3.03-3.41-.71-1.48-1.07-3.21-1.07-5.2,0-3.08.77-5.47,2.31-7.19,1.54-1.72,3.67-2.57,6.41-2.57s4.74.88,6.29,2.63c1.56,1.76,2.33,4.13,2.33,7.13ZM316.74,297.1c0,2.41.48,4.25,1.45,5.51.96,1.26,2.38,1.89,4.25,1.89s3.29-.63,4.26-1.89,1.46-3.1,1.46-5.52-.49-4.22-1.46-5.47c-.97-1.25-2.4-1.87-4.3-1.87s-3.28.61-4.24,1.84-1.43,3.06-1.43,5.49Z"/>
    <path class="cls-2" d="M350.94,287.68v1.81l-3.5.41c.32.4.61.93.86,1.58.25.65.38,1.38.38,2.2,0,1.85-.63,3.32-1.89,4.42-1.26,1.1-3,1.65-5.2,1.65-.56,0-1.09-.05-1.58-.14-1.22.64-1.83,1.45-1.83,2.43,0,.52.21.9.64,1.15.42.25,1.15.37,2.19.37h3.34c2.04,0,3.61.43,4.71,1.29,1.1.86,1.64,2.11,1.64,3.75,0,2.09-.84,3.68-2.51,4.78-1.68,1.1-4.12,1.64-7.34,1.64-2.47,0-4.37-.46-5.71-1.38-1.34-.92-2.01-2.22-2.01-3.89,0-1.15.37-2.14,1.1-2.98s1.77-1.41,3.1-1.7c-.48-.22-.89-.56-1.21-1.02-.33-.46-.49-.99-.49-1.6,0-.69.18-1.29.55-1.81.37-.52.95-1.02,1.74-1.5-.98-.4-1.77-1.08-2.39-2.05-.61-.96-.92-2.07-.92-3.31,0-2.07.62-3.66,1.86-4.78,1.24-1.12,3-1.68,5.27-1.68.99,0,1.88.11,2.67.34h6.53ZM335.89,309.72c0,1.02.43,1.8,1.29,2.33.86.53,2.1.79,3.7.79,2.4,0,4.18-.36,5.33-1.08,1.15-.72,1.73-1.69,1.73-2.92,0-1.02-.32-1.73-.95-2.13-.63-.4-1.82-.59-3.56-.59h-3.43c-1.3,0-2.31.31-3.03.93-.72.62-1.08,1.51-1.08,2.67ZM337.44,293.73c0,1.32.37,2.32,1.12,3,.75.68,1.79,1.02,3.12,1.02,2.79,0,4.18-1.35,4.18-4.06s-1.41-4.25-4.24-4.25c-1.34,0-2.38.36-3.1,1.08s-1.08,1.8-1.08,3.22Z"/>
    <path class="cls-2" d="M351.18,287.68h3.07l4.13,10.76c.91,2.46,1.47,4.23,1.69,5.32h.14c.15-.58.46-1.59.94-3,.48-1.42,2.03-5.78,4.67-13.08h3.07l-8.11,21.49c-.8,2.12-1.74,3.63-2.82,4.52s-2.39,1.33-3.95,1.33c-.87,0-1.73-.1-2.58-.29v-2.29c.63.14,1.34.21,2.12.21,1.96,0,3.36-1.1,4.2-3.31l1.05-2.69-7.61-18.98Z"/>
    <path class="cls-2" d="M378.76,300.03c0-1.49.4-2.81,1.2-3.96.8-1.15,2.23-2.31,4.3-3.48-.98-1.09-1.64-1.92-1.99-2.48-.35-.56-.63-1.15-.83-1.76-.21-.61-.31-1.24-.31-1.89,0-1.72.56-3.06,1.69-4.03,1.12-.96,2.69-1.45,4.7-1.45,1.86,0,3.32.48,4.39,1.44,1.07.96,1.6,2.29,1.6,4,0,1.23-.39,2.36-1.17,3.4s-2.07,2.09-3.87,3.16l7.01,6.73c.64-.71,1.16-1.55,1.54-2.51.38-.96.71-2.01.97-3.14h2.89c-.78,3.28-1.96,5.77-3.53,7.47l5.15,5.01h-3.94l-3.19-3.07c-1.36,1.22-2.73,2.09-4.13,2.62-1.4.53-2.96.79-4.68.79-2.47,0-4.38-.61-5.74-1.83s-2.04-2.9-2.04-5.05ZM386.61,304.33c2.77,0,5.06-.88,6.89-2.65l-7.52-7.3c-1.27.78-2.18,1.43-2.7,1.94s-.92,1.06-1.17,1.64c-.25.59-.38,1.25-.38,2,0,1.34.45,2.41,1.33,3.19.89.79,2.08,1.18,3.56,1.18ZM383.94,286.39c0,.79.21,1.55.62,2.26.41.72,1.12,1.58,2.12,2.59,1.48-.86,2.51-1.66,3.09-2.38.58-.73.87-1.57.87-2.52,0-.88-.3-1.6-.89-2.16s-1.38-.83-2.37-.83-1.85.28-2.49.83c-.64.55-.96,1.29-.96,2.22Z"/>
    <path class="cls-2" d="M171.74,328.7c-2.77,0-4.95.92-6.55,2.76-1.6,1.84-2.4,4.37-2.4,7.57s.77,5.84,2.32,7.64c1.54,1.8,3.75,2.69,6.6,2.69,1.76,0,3.76-.32,6.01-.95v2.57c-1.75.65-3.9.98-6.46.98-3.71,0-6.57-1.12-8.58-3.38s-3.02-5.45-3.02-9.59c0-2.59.49-4.87,1.46-6.82.97-1.95,2.37-3.46,4.2-4.51,1.83-1.06,3.99-1.58,6.47-1.58,2.64,0,4.95.48,6.92,1.45l-1.24,2.51c-1.91-.9-3.81-1.34-5.72-1.34Z"/>
    <path class="cls-2" d="M198.43,342.16c0,3.08-.77,5.48-2.32,7.21s-3.69,2.59-6.42,2.59c-1.69,0-3.19-.4-4.5-1.19-1.31-.79-2.32-1.93-3.03-3.41-.71-1.48-1.07-3.21-1.07-5.2,0-3.08.77-5.47,2.31-7.19,1.54-1.72,3.67-2.57,6.41-2.57s4.74.88,6.29,2.63c1.56,1.76,2.33,4.13,2.33,7.13ZM184.05,342.16c0,2.41.48,4.25,1.45,5.51.96,1.26,2.38,1.89,4.25,1.89s3.29-.63,4.26-1.89,1.46-3.1,1.46-5.52-.49-4.22-1.46-5.47c-.97-1.25-2.4-1.87-4.3-1.87s-3.28.61-4.24,1.84-1.43,3.06-1.43,5.49Z"/>
    <path class="cls-2" d="M215.72,351.61v-12.21c0-1.54-.35-2.69-1.05-3.44s-1.8-1.14-3.29-1.14c-1.97,0-3.42.53-4.34,1.6-.92,1.07-1.38,2.83-1.38,5.29v9.9h-2.86v-18.87h2.33l.46,2.58h.14c.58-.93,1.41-1.65,2.46-2.16,1.06-.51,2.23-.77,3.53-.77,2.27,0,3.98.55,5.13,1.64,1.15,1.1,1.72,2.85,1.72,5.26v12.31h-2.86Z"/>
    <path class="cls-2" d="M235.99,346.47c0,1.76-.65,3.11-1.96,4.06-1.31.95-3.15,1.43-5.51,1.43-2.5,0-4.45-.4-5.85-1.19v-2.65c.91.46,1.88.82,2.92,1.08,1.04.26,2.04.4,3,.4,1.49,0,2.64-.24,3.44-.71.8-.48,1.21-1.2,1.21-2.18,0-.74-.32-1.36-.96-1.89s-1.88-1.14-3.73-1.85c-1.76-.65-3-1.22-3.75-1.71s-1.29-1.04-1.65-1.66c-.36-.62-.54-1.36-.54-2.22,0-1.54.63-2.75,1.88-3.64s2.97-1.33,5.15-1.33c2.03,0,4.02.41,5.96,1.24l-1.02,2.33c-1.89-.78-3.61-1.17-5.15-1.17-1.36,0-2.38.21-3.07.64s-1.03,1.01-1.03,1.76c0,.5.13.94.39,1.29.26.36.67.69,1.25,1.02.57.32,1.68.79,3.31,1.4,2.24.82,3.75,1.64,4.54,2.46.79.83,1.18,1.87,1.18,3.12Z"/>
    <path class="cls-2" d="M247.98,351.96c-2.79,0-4.99-.85-6.6-2.55s-2.42-4.06-2.42-7.08.75-5.46,2.25-7.25c1.5-1.79,3.51-2.69,6.04-2.69,2.37,0,4.24.78,5.61,2.33,1.38,1.56,2.07,3.61,2.07,6.16v1.81h-13c.06,2.22.62,3.9,1.68,5.05,1.06,1.15,2.56,1.72,4.49,1.72,2.03,0,4.04-.42,6.03-1.27v2.55c-1.01.44-1.97.75-2.87.94s-1.99.28-3.26.28ZM247.2,334.79c-1.52,0-2.72.49-3.62,1.48s-1.43,2.35-1.59,4.1h9.87c0-1.8-.4-3.18-1.21-4.14-.8-.96-1.95-1.44-3.44-1.44Z"/>
    <path class="cls-2" d="M267.77,332.4c.84,0,1.59.07,2.26.21l-.4,2.65c-.78-.17-1.47-.26-2.07-.26-1.53,0-2.83.62-3.92,1.86-1.08,1.24-1.63,2.78-1.63,4.63v10.12h-2.86v-18.87h2.36l.33,3.5h.14c.7-1.23,1.54-2.18,2.53-2.84.99-.67,2.07-1,3.25-1Z"/>
    <path class="cls-2" d="M277.05,351.61l-7.16-18.87h3.07l4.06,11.19c.92,2.62,1.46,4.32,1.62,5.1h.14c.13-.61.52-1.87,1.2-3.78.67-1.91,2.18-6.08,4.52-12.51h3.06l-7.16,18.87h-3.34Z"/>
    <path class="cls-2" d="M301.56,351.61l-.57-2.69h-.14c-.94,1.18-1.88,1.98-2.82,2.4s-2.1.63-3.5.63c-1.87,0-3.34-.48-4.4-1.45-1.06-.96-1.59-2.34-1.59-4.12,0-3.81,3.05-5.81,9.14-5.99l3.2-.1v-1.17c0-1.48-.32-2.57-.96-3.28-.64-.71-1.66-1.06-3.06-1.06-1.57,0-3.35.48-5.34,1.45l-.88-2.19c.93-.5,1.95-.9,3.06-1.19s2.22-.43,3.33-.43c2.25,0,3.92.5,5,1.5,1.08,1,1.63,2.6,1.63,4.8v12.88h-2.12ZM295.1,349.6c1.78,0,3.18-.49,4.19-1.46,1.02-.98,1.52-2.34,1.52-4.1v-1.71l-2.86.12c-2.27.08-3.91.43-4.92,1.06-1,.63-1.51,1.6-1.51,2.92,0,1.03.31,1.82.94,2.36.62.54,1.5.81,2.63.81Z"/>
    <path class="cls-2" d="M315.02,349.6c.51,0,.99-.04,1.46-.11.47-.07.84-.15,1.12-.23v2.19c-.31.15-.77.27-1.37.37-.6.1-1.15.15-1.63.15-3.65,0-5.48-1.92-5.48-5.77v-11.23h-2.7v-1.38l2.7-1.19,1.21-4.03h1.65v4.37h5.48v2.22h-5.48v11.11c0,1.14.27,2.01.81,2.62.54.61,1.28.91,2.22.91Z"/>
    <path class="cls-2" d="M320.5,327.63c0-.65.16-1.13.48-1.44.32-.3.72-.46,1.21-.46s.85.15,1.19.46c.33.31.5.79.5,1.43s-.17,1.12-.5,1.44-.73.47-1.19.47c-.48,0-.88-.16-1.21-.47s-.48-.79-.48-1.44ZM323.6,351.61h-2.86v-18.87h2.86v18.87Z"/>
    <path class="cls-2" d="M345.32,342.16c0,3.08-.77,5.48-2.32,7.21s-3.69,2.59-6.42,2.59c-1.69,0-3.19-.4-4.5-1.19-1.31-.79-2.32-1.93-3.03-3.41-.71-1.48-1.07-3.21-1.07-5.2,0-3.08.77-5.47,2.31-7.19,1.54-1.72,3.67-2.57,6.41-2.57s4.74.88,6.29,2.63c1.56,1.76,2.33,4.13,2.33,7.13ZM330.94,342.16c0,2.41.48,4.25,1.45,5.51.96,1.26,2.38,1.89,4.25,1.89s3.29-.63,4.26-1.89,1.46-3.1,1.46-5.52-.49-4.22-1.46-5.47c-.97-1.25-2.4-1.87-4.3-1.87s-3.28.61-4.24,1.84-1.43,3.06-1.43,5.49Z"/>
    <path class="cls-2" d="M362.61,351.61v-12.21c0-1.54-.35-2.69-1.05-3.44s-1.8-1.14-3.29-1.14c-1.97,0-3.42.53-4.34,1.6-.92,1.07-1.38,2.83-1.38,5.29v9.9h-2.86v-18.87h2.33l.46,2.58h.14c.58-.93,1.41-1.65,2.46-2.16,1.06-.51,2.23-.77,3.53-.77,2.27,0,3.98.55,5.13,1.64,1.15,1.1,1.72,2.85,1.72,5.26v12.31h-2.86Z"/>
    <path class="cls-2" d="M379.66,326.44h7.11c3.34,0,5.76.5,7.25,1.5,1.49,1,2.24,2.58,2.24,4.74,0,1.49-.42,2.72-1.25,3.69-.83.97-2.05,1.6-3.64,1.89v.17c3.82.65,5.73,2.66,5.73,6.03,0,2.25-.76,4.01-2.28,5.27-1.52,1.26-3.65,1.89-6.38,1.89h-8.78v-25.17ZM382.59,337.22h4.82c2.07,0,3.55-.32,4.46-.97.91-.65,1.36-1.74,1.36-3.28,0-1.41-.5-2.43-1.52-3.06-1.01-.63-2.62-.94-4.82-.94h-4.3v8.25ZM382.59,339.7v9.42h5.25c2.03,0,3.56-.39,4.59-1.18,1.03-.79,1.54-2.02,1.54-3.69,0-1.56-.53-2.71-1.58-3.44-1.05-.74-2.65-1.1-4.8-1.1h-5.01Z"/>
    <path class="cls-2" d="M401.21,327.63c0-.65.16-1.13.48-1.44.32-.3.72-.46,1.21-.46s.85.15,1.19.46c.33.31.5.79.5,1.43s-.17,1.12-.5,1.44-.73.47-1.19.47c-.48,0-.88-.16-1.21-.47s-.48-.79-.48-1.44ZM404.31,351.61h-2.86v-18.87h2.86v18.87Z"/>
    <path class="cls-2" d="M426.02,342.16c0,3.08-.77,5.48-2.32,7.21s-3.69,2.59-6.42,2.59c-1.69,0-3.19-.4-4.5-1.19-1.31-.79-2.32-1.93-3.03-3.41-.71-1.48-1.07-3.21-1.07-5.2,0-3.08.77-5.47,2.31-7.19,1.54-1.72,3.67-2.57,6.41-2.57s4.74.88,6.29,2.63c1.56,1.76,2.33,4.13,2.33,7.13ZM411.64,342.16c0,2.41.48,4.25,1.45,5.51.96,1.26,2.38,1.89,4.25,1.89s3.29-.63,4.26-1.89,1.46-3.1,1.46-5.52-.49-4.22-1.46-5.47c-.97-1.25-2.4-1.87-4.3-1.87s-3.28.61-4.24,1.84-1.43,3.06-1.43,5.49Z"/>
    <path class="cls-2" d="M433.26,351.61h-2.86v-26.79h2.86v26.79Z"/>
    <path class="cls-2" d="M454.97,342.16c0,3.08-.77,5.48-2.32,7.21s-3.69,2.59-6.42,2.59c-1.69,0-3.19-.4-4.5-1.19-1.31-.79-2.32-1.93-3.03-3.41-.71-1.48-1.07-3.21-1.07-5.2,0-3.08.77-5.47,2.31-7.19,1.54-1.72,3.67-2.57,6.41-2.57s4.74.88,6.29,2.63c1.56,1.76,2.33,4.13,2.33,7.13ZM440.59,342.16c0,2.41.48,4.25,1.45,5.51.96,1.26,2.38,1.89,4.25,1.89s3.29-.63,4.26-1.89,1.46-3.1,1.46-5.52-.49-4.22-1.46-5.47c-.97-1.25-2.4-1.87-4.3-1.87s-3.28.61-4.24,1.84-1.43,3.06-1.43,5.49Z"/>
    <path class="cls-2" d="M474.79,332.74v1.81l-3.5.41c.32.4.61.93.86,1.58.25.65.38,1.38.38,2.2,0,1.85-.63,3.32-1.89,4.42-1.26,1.1-3,1.65-5.2,1.65-.56,0-1.09-.05-1.58-.14-1.22.64-1.83,1.45-1.83,2.43,0,.52.21.9.64,1.15.42.25,1.15.37,2.19.37h3.34c2.04,0,3.61.43,4.71,1.29,1.1.86,1.64,2.11,1.64,3.75,0,2.09-.84,3.68-2.51,4.78-1.68,1.1-4.12,1.64-7.34,1.64-2.47,0-4.37-.46-5.71-1.38-1.34-.92-2.01-2.22-2.01-3.89,0-1.15.37-2.14,1.1-2.98s1.77-1.41,3.1-1.7c-.48-.22-.89-.56-1.21-1.02-.33-.46-.49-.99-.49-1.6,0-.69.18-1.29.55-1.81.37-.52.95-1.02,1.74-1.5-.98-.4-1.77-1.08-2.39-2.05-.61-.96-.92-2.07-.92-3.31,0-2.07.62-3.66,1.86-4.78,1.24-1.12,3-1.68,5.27-1.68.99,0,1.88.11,2.67.34h6.53ZM459.74,354.78c0,1.02.43,1.8,1.29,2.33.86.53,2.1.79,3.7.79,2.4,0,4.18-.36,5.33-1.08,1.15-.72,1.73-1.69,1.73-2.92,0-1.02-.32-1.73-.95-2.13-.63-.4-1.82-.59-3.56-.59h-3.43c-1.3,0-2.31.31-3.03.93-.72.62-1.08,1.51-1.08,2.67ZM461.29,338.79c0,1.32.37,2.32,1.12,3,.75.68,1.79,1.02,3.12,1.02,2.79,0,4.18-1.35,4.18-4.06s-1.41-4.25-4.24-4.25c-1.34,0-2.38.36-3.1,1.08s-1.08,1.8-1.08,3.22Z"/>
    <path class="cls-2" d="M475.04,332.74h3.07l4.13,10.76c.91,2.46,1.47,4.23,1.69,5.32h.14c.15-.58.46-1.59.94-3,.48-1.42,2.03-5.78,4.67-13.08h3.07l-8.11,21.49c-.8,2.12-1.74,3.63-2.82,4.52s-2.39,1.33-3.95,1.33c-.87,0-1.73-.1-2.58-.29v-2.29c.63.14,1.34.21,2.12.21,1.96,0,3.36-1.1,4.2-3.31l1.05-2.69-7.61-18.98Z"/>
  </g>
  <rect class="cls-1" x="273.75" y="115.81" width="102.73" height="103.55"/>
  <polygon class="cls-3" points="362.84 157.01 355.21 157.01 354.77 157.01 354.58 157.41 349.04 168.93 343.49 157.41 343.3 157.01 342.86 157.01 335.48 157.01 334.78 157.01 334.78 157.72 334.78 161.64 334.78 162.35 335.48 162.35 336.75 162.35 336.75 178.84 335.38 178.84 334.68 178.84 334.68 179.54 334.68 183.47 334.68 184.17 335.38 184.17 343.66 184.17 344.36 184.17 344.36 183.47 344.36 179.54 344.36 178.84 343.66 178.84 342.23 178.84 342.23 167.14 348.41 179.89 349.05 181.19 349.68 179.89 355.93 167.1 355.93 178.84 354.57 178.84 353.86 178.84 353.86 179.54 353.86 183.47 353.86 184.17 354.57 184.17 362.84 184.17 363.55 184.17 363.55 183.47 363.55 179.54 363.55 178.84 362.84 178.84 361.42 178.84 361.42 162.35 362.84 162.35 363.55 162.35 363.55 161.64 363.55 157.72 363.55 157.01 362.84 157.01"/>
  <path class="cls-3" d="M314.75,178.82h-2.2l-7.17-16.57h1.39v-5.34h-11.52v5.34h1.58l-7.16,16.57h-2.98v5.34h10.44v-5.34h-1.52l1.19-2.76h8.62l1.19,2.76h-1.6v5.34h10.45v-5.34h-.7ZM303.12,170.73h-4l2-4.63,2,4.63Z"/>
  <polygon class="cls-3" points="354.08 136.31 295.97 136.31 295.17 136.31 295.17 137.11 295.17 152.63 295.17 153.43 295.97 153.43 306.01 153.43 306.81 153.43 306.81 152.63 306.81 146.87 319.21 146.87 319.21 187.77 313.44 187.77 312.64 187.77 312.64 188.58 312.64 198.61 312.64 199.41 313.44 199.41 336.61 199.41 337.41 199.41 337.41 198.61 337.41 188.58 337.41 187.77 336.61 187.77 330.85 187.77 330.85 146.87 343.17 146.87 343.17 152.56 343.17 153.36 343.98 153.36 354.08 153.36 354.88 153.36 354.88 152.56 354.88 137.11 354.88 136.31 354.08 136.31"/>
  <polygon class="cls-4" points="332.57 192.55 335.02 190.02 335.02 196.95 332.57 194.6 332.57 192.55"/>
  <polygon class="cls-4" points="328.48 190.21 326.02 192.62 326.02 142.04 328.48 144.49 328.48 190.21"/>
  <polygon class="cls-4" points="300.09 141.15 297.56 138.7 351.26 138.7 348.09 141.15 300.09 141.15"/>
  <polygon class="cls-4" points="352.57 151.11 350.11 148.77 350.11 142.52 352.57 140 352.57 151.11"/>
  <path class="cls-1" d="M380.17,217.29c0-1.13.92-2.06,2.06-2.06s2.06.92,2.06,2.06-.92,2.06-2.06,2.06-2.06-.92-2.06-2.06ZM383.79,217.29c0-.96-.7-1.66-1.56-1.66s-1.56.7-1.56,1.66.7,1.66,1.56,1.66,1.56-.7,1.56-1.66ZM381.44,216.12h.87c.56,0,.86.19.86.68,0,.4-.23.59-.61.63l.63,1.02h-.44l-.6-1h-.26v1h-.43v-2.33ZM381.87,217.12h.38c.26,0,.48-.03.48-.35,0-.27-.25-.32-.47-.32h-.39v.67Z"/>
</svg>