<?xml version="1.0" encoding="UTF-8"?>
<svg id="Capa_2" data-name="Capa 2" xmlns="http://www.w3.org/2000/svg" viewBox="0 0 172.09 286.96">
  <defs>
    <style>
      .cls-1 {
        fill: #03aca5;
      }

      .cls-2 {
        fill: #ff9101;
      }

      .cls-3 {
        fill: #6a7173;
      }

      .cls-4 {
        fill: #7a6256;
      }

      .cls-5 {
        fill: #ffac01;
      }

      .cls-6 {
        fill: #fed4ac;
      }

      .cls-7 {
        fill: #949ea0;
      }

      .cls-8 {
        fill: #028782;
      }

      .cls-9 {
        fill: #1a1d1f;
      }

      .cls-10 {
        fill: #ffd28e;
      }

      .cls-11 {
        fill: #1b64b1;
      }

      .cls-12 {
        fill: #124275;
      }

      .cls-13 {
        fill: #e6b68a;
      }
    </style>
  </defs>
  <g id="OBJECTS">
    <g>
      <g>
        <g>
          <polygon class="cls-10" points="149.07 1.69 155.65 9.78 153.82 10.77 148.5 1.93 149.07 1.69"/>
          <path class="cls-11" d="M150.77.45c.41.63-.13,1.71-1.2,2.39-1.07.69-2.27.73-2.68.1-.41-.63.13-1.71,1.2-2.39s2.27-.73,2.68-.1Z"/>
        </g>
        <g>
          <polygon class="cls-10" points="143.09 3.86 151.09 10.56 149.47 11.87 142.58 4.2 143.09 3.86"/>
          <path class="cls-11" d="M144.53,2.31c.52.55.19,1.7-.73,2.58-.92.88-2.09,1.15-2.61.6-.52-.55-.19-1.7.73-2.58.92-.88,2.09-1.15,2.61-.6Z"/>
        </g>
        <g>
          <polygon class="cls-10" points="139.12 8.41 148.81 12.28 147.68 14.03 138.74 8.89 139.12 8.41"/>
          <path class="cls-11" d="M140,6.49c.66.36.71,1.55.11,2.68s-1.63,1.74-2.29,1.39c-.66-.36-.71-1.55-.11-2.68s1.63-1.74,2.29-1.39Z"/>
        </g>
        <g>
          <polygon class="cls-10" points="138.16 14.85 148.5 13.45 148.37 15.53 138.06 15.45 138.16 14.85"/>
          <path class="cls-11" d="M137.98,12.74c.75-.02,1.39,1,1.41,2.28.03,1.27-.56,2.32-1.31,2.33-.75.02-1.39-1-1.41-2.28-.03-1.27.56-2.32,1.31-2.33Z"/>
        </g>
        <polygon class="cls-6" points="122.03 119.29 119.14 141.07 123 171.71 139.54 178.78 139.09 181.78 123.87 176.63 139.09 183.45 138.17 185.61 119.04 178.45 111.34 180.95 111.34 176.63 118.04 173.84 113.58 141.07 117 119.29 122.03 119.29"/>
        <polygon class="cls-6" points="95.72 117.37 92.82 139.15 96.69 169.79 113.22 176.86 112.77 179.86 97.56 174.71 112.77 181.53 111.85 183.69 92.73 176.53 85.03 179.03 85.03 174.71 91.73 171.92 87.26 139.15 90.69 117.37 95.72 117.37"/>
        <path class="cls-11" d="M169.86,230.84c-3.78,7.99-12.89-6.57-13.33-7.29.33,1.17,10.6,36.97,1.48,39.56-9.26,2.63-10.12-7.93-10.12-7.93,0,0-.09.15-.26.42-2.49,4.02-22.51,35.36-37.04,30.93-1.1-.32-2.17-.86-3.19-1.63-8.08-6.48,11.33-28.91,11.83-29.49-.43.2-12.94,6.15-14.63,1.28-1.53-4.39,12.58-15.14,15.9-17.59-2.84,1.97-13.58,8.99-13.96,2.08-.43-7.97,12.06-9.69,9.47-20.46,0,0,.43,6.68-5.17,6.03-5.34-.62-13.22-15.91-13.95-17.34.52,1.39,5.66,15.52-1.74,13.68-7.38-1.84-19.58-15.12-20.82-16.48.89,1.1,8.33,10.39,5.5,12.82-3.02,2.58-41.09-6.26-61.47-32.75-8.33-10.81-8.79-21.85-6.43-31.11.43-1.7.96-3.33,1.55-4.9,4.08-10.83,11.21-18.26,11.21-18.26l53.08-17.45s59.35,22.83,56.98,30.37c-2.31,7.35-14.25,3.68-14.84,3.5,1.03.55,34,18.16,33.58,25.8-.42,7.58-12.79,3.01-13.33,2.81.83.55,28.58,19.05,25.82,26.26-2.62,6.85-13.33-1.74-14.72-2.88,1.83,1.81,22.31,22.2,18.6,30.02Z"/>
        <path class="cls-12" d="M135.25,254.54c-2.37,5.75-6.2,10.77-9.99,15.71-4.41,5.74-9.13,11.68-14.67,16.28-1.1-.32-2.17-.86-3.19-1.63-8.08-6.48,11.33-28.91,11.83-29.49-.43.2-12.94,6.15-14.63,1.28-1.53-4.39,12.58-15.14,15.9-17.59-2.84,1.97-13.58,8.99-13.96,2.08-.43-7.97,12.06-9.69,9.47-20.46,0,0,.43,6.68-5.17,6.03-5.34-.62-13.22-15.91-13.95-17.34.52,1.39,5.66,15.52-1.74,13.68-7.38-1.84-19.58-15.12-20.82-16.48.89,1.1,8.33,10.39,5.5,12.82-3.02,2.58-41.09-6.26-61.47-32.75-8.33-10.81-8.79-21.85-6.43-31.11,7.77,4.75,16.05,8.46,25.01,9.83,6.35.98,12.82.73,19.25,1.02,11.62.52,23.16,2.82,34.09,6.79,6.14,2.22,12.15,5.02,17.2,9.17,3.61,2.97,6.65,6.58,9.58,10.24,7.08,8.82,13.73,18.18,17.64,28.79,3.9,10.61,4.85,22.67.55,33.13Z"/>
        <path class="cls-1" d="M138.77,255.06h0c-1.17,1.12-2.23,1.66-2.94,1.63-4.74-.22-8.4-26.71-15.51-43.51-7-16.54-40.29-28.07-41.33-28.42.58.53,12.59,11.51,8.81,16.14-5.96,7.28-27.38-8.74-31.88-12.24,2.25,1.89,7.9,7.42,3.88,12.67-4.82,6.29-26.74-16.95-27.95-18.24,3.63,4.3,5.96,10.72,1.67,12.86-4.31,2.15-13.15-6.79-13.15-6.79C4.92,170.86-3.97,145.76,1.74,122.5c4.05-16.47,15.09-30.74,28.94-40.53,10.76-7.61,23.13-12.66,35.96-15.8,3.68-.91,7.4-1.65,11.13-2.25l-12.16,48.24c17.05,5.82,39.42,19.82,37.91,23.13s-14.43,1-14.43,1c0,0,17.66,9.04,17.23,13.02-.38,3.52-10.23-.26-12.47-1.16,10.09,4.44,16.8,13.85,17.86,19.37,1.01,5.29-8.18,3.64-9.18,3.45,1.17.36,13.53,4.24,22.96,15.72,29.83,38.06,19.86,62.13,13.28,68.37Z"/>
        <path class="cls-8" d="M138.77,255.06h0c-1.17,1.12-2.23,1.66-2.94,1.63-4.74-.22-8.4-26.71-15.51-43.51-7-16.54-40.29-28.07-41.33-28.42.58.53,12.59,11.51,8.81,16.14-5.96,7.28-27.38-8.74-31.88-12.24,2.25,1.89,7.9,7.42,3.88,12.67-4.82,6.29-26.74-16.95-27.95-18.24,3.63,4.3,5.96,10.72,1.67,12.86-4.31,2.15-13.15-6.79-13.15-6.79C4.92,170.86-3.97,145.76,1.74,122.5c4.05-16.47,15.09-30.74,28.94-40.53,10.76-7.61,23.13-12.66,35.96-15.8.32.17.64.35.95.54-13.61,7.36-27.41,14.85-38.57,25.57-11.16,10.72-19.57,25.24-19.55,40.72,0,6.96,1.71,13.82,3.79,20.47,3.33,10.61,7.81,21.11,15.23,29.4.78-3.14.82-6.45.1-9.6,4.31,7.14,11.72,12.34,19.9,13.96.95.19,1.94.33,2.87.06,2.01-.59,3.04-2.97,2.8-5.04-.23-2.08-1.4-3.91-2.54-5.67,2.62,3.52,5.34,7.14,9.11,9.38,3.78,2.25,8.9,2.82,12.42.2,2.84-2.12,3.69-6.63,1.92-9.46,2.14,1.88,4.73,3.26,7.55,3.37,3.62.15,7.46-2.35,7.88-5.94,26.5,10.47,46.23,36.39,49.27,64.72.59,5.42.58,11.02-1,16.21Z"/>
        <path class="cls-8" d="M162.36,91.16c.08,12.57-9.16,23.89-20.6,29.11-11.43,5.21-24.62,5.21-37.02,3.15s-24.39-6.06-36.71-8.55c-10.96-2.22-22.16-3.25-33.34-3.07-2.26.04-4.51.12-6.75.26,14.43-16.24,33.72-27.81,54.75-33.24,21.04-5.44,43.68-4.46,64.17,2.77,1.44.51,2.89,1.07,4.31,1.71,4.23,1.89,8.26,4.39,11.19,7.86Z"/>
        <path class="cls-1" d="M151.17,83.3c-1.63,9.45-8.07,18.13-16.32,23.34-10.63,6.71-23.69,8.49-36.26,8.12-12.56-.36-24.99-2.7-37.53-3.51-8.78-.56-17.61-.38-26.37.55-2.26.04-4.51.12-6.75.26,14.43-16.24,33.72-27.81,54.75-33.24,21.04-5.44,43.68-4.46,64.17,2.77,1.44.51,2.89,1.07,4.31,1.71Z"/>
        <path class="cls-2" d="M76.59,94.86c-2.08,1.59-4.22,3.23-5.53,5.5-1.31,2.27-1.59,5.34.03,7.39,1.29,1.64,3.47,2.3,5.53,2.61,7.78,1.17,15.87-1.81,21.54-7.25-1.62,1.47-3.32,3.5-2.68,5.59.45,1.48,2.01,2.42,3.56,2.57,1.54.15,3.07-.32,4.53-.86,11.87-4.4,21.94-13.47,27.53-24.83-18.34,3.36-39.68-2.01-54.51,9.29Z"/>
        <path class="cls-5" d="M79.43,89.31c-2.08,1.59-4.22,3.23-5.53,5.5-1.31,2.27-1.59,5.34.03,7.39,1.29,1.64,3.47,2.3,5.53,2.61,7.78,1.17,15.87-1.81,21.54-7.25-1.62,1.47-3.32,3.5-2.68,5.59.45,1.48,2.01,2.42,3.56,2.57,1.54.15,3.07-.32,4.53-.86,11.87-4.4,21.94-13.47,27.53-24.83-18.34,3.36-39.68-2.01-54.51,9.29Z"/>
        <path class="cls-11" d="M169.46,81.9c-.81,6.39-2.71,12.85-5.67,18.57-.92,1.77-2.18,3.67-4.15,4-1.32.21-2.74-.43-3.45-1.57-.71-1.13-.66-2.69.12-3.78-.84,1.2-1.82,2.35-3.11,3.05-1.28.7-2.86.95-4.23.46-1.19-.43-2.17-1.42-2.58-2.61-.42-1.19-.27-2.57.39-3.64-.98.9-1.94,1.6-3.19,2.06s-2.69.52-3.9-.06c-1.17-.56-2.03-1.74-2.21-3.02,0-.06-.02-.12-.02-.18-.1-1.05.25-2.15.93-2.96-1,.92-2.57,1.37-3.9,1.33-1.5-.04-2.96-.83-3.83-2.05-1.3-1.84-1.18-4.37-.38-6.47.81-2.1,2.21-3.91,3.4-5.82,4.08-6.58,6.02-14.44,4.77-22.08,3.83-2.52,6.32-6.73,7.52-11.16s1.21-9.09.95-13.66c-.27-4.58-.94-9.44-.53-14.01.3-3.33,1.4-5.65,2.94-7.17,2.13-2.12,5.11-2.69,7.93-2.28,6.08.91,8.28,5.12,8.28,5.12l.73,2.4.05.18c-.08.38-.18.8-.28,1.22h0c-.1.43-.2.84-.28,1.21-2.28,2.06-4.51,4.33-6.47,6.71.1,4.9,2.36,9.58,4.28,14.08,5.64,13.19,7.7,27.9,5.89,42.13Z"/>
        <path class="cls-12" d="M169.46,81.9c-.81,6.39-2.71,12.85-5.67,18.57-.92,1.77-2.18,3.67-4.15,4-1.32.21-2.74-.43-3.45-1.57-.71-1.13-.66-2.69.12-3.78-.84,1.2-1.82,2.35-3.11,3.05-1.28.7-2.86.95-4.23.46-1.19-.43-2.17-1.42-2.58-2.61-.42-1.19-.27-2.57.39-3.64-.98.9-1.94,1.6-3.19,2.06s-2.69.52-3.9-.06c-1.17-.56-2.03-1.74-2.21-3.02,0-.06-.02-.12-.02-.18.09-.07.18-.13.28-.19.82-.51,1.82-.63,2.78-.74,3.75-.42,7.52-.84,11.09-2.06,3.56-1.21,6.95-3.29,9.06-6.41.16-.25.33-.52.34-.81,0-.37-.21-.7-.37-1.03-1.06-2.28.88-4.76,2.67-6.52-1.13.34-1.59-1.44-1.29-2.58.46-1.69,1.25-3.28,2.32-4.67-.54.61-1.44.89-2.24.69.2-2.62,1.32-5.17,3.12-7.09-.35.51-1.2.38-1.59-.1-.38-.48-.43-1.14-.43-1.76.02-2.3.14-4.42,1.01-6.56-.21.53-.43,1.07-.85,1.45-.41.38-1.08.56-1.55.24-.54-.36-.57-1.13-.54-1.78.08-2.09.17-4.17.26-6.26-.26,1.32-1.95,2.11-3.13,1.47-1.14-.63-1.46-2.16-1.25-3.44.22-1.28.85-2.46,1.13-3.73-.36.5-.76,1-1.32,1.28-.56.27-1.31.24-1.72-.22-.32-.36-.37-.88-.39-1.36-.1-2.87.35-5.76,1.33-8.46-.52.95-1.46,1.95-2.49,1.63-1.09-.34-1.22-1.82-1.05-2.95,1.03-6.81,5.55-13.01,11.73-16.06.6.05,1.16.27,1.67.61h0c-.1.43-.2.84-.28,1.21-2.28,2.06-4.51,4.33-6.47,6.71.1,4.9,2.36,9.58,4.28,14.08,5.64,13.19,7.7,27.9,5.89,42.13Z"/>
        <path class="cls-1" d="M166.27,16.37c-.92.35-1.99.4-2.98.3-2.68-.28-5.19-1.43-7.63-2.56-.75-.35-1.51-.7-2.2-1.17-.59-.4-1.13-.88-1.77-1.21-.61-.31-1.28-.46-1.96-.56-.13-.02-.26-.04-.4-.04,2.13-2.12,5.11-2.69,7.93-2.28,6.08.91,8.28,5.12,8.28,5.12l.73,2.4Z"/>
        <path class="cls-6" d="M137.41,79.1c-4.7,6.89-11.84,11.82-19.47,15.18s-15.81,5.27-23.93,7.17c-1.36.31-2.76.63-4.15.49-1.4-.14-2.81-.83-3.46-2.08-.67-1.32-.17-3.03.95-3.96-5.25,2.74-27.88,14.2-30.57,9.54-.77-1.34,0-2.92,1.59-4.53-16.99,9.69-41.59,22.39-44.74,16.61-1.18-2.16-.83-4.83.77-7.78,5-9.25,22.28-21.17,43.29-28.26,0,0-6.9-.41-3.85-5.58,3.04-5.18,18.37-15.74,50.66-19.9,12.94-1.87,25.45-2.85,36.53-.76.12.02.24.05.36.07,2.7,7.89.72,16.9-3.98,23.79Z"/>
        <path class="cls-13" d="M137.41,79.1c-4.7,6.89-11.84,11.82-19.47,15.18s-15.81,5.27-23.93,7.17c-1.36.31-2.76.63-4.15.49-1.4-.14-2.81-.83-3.46-2.08-.67-1.32-.17-3.03.95-3.96-5.25,2.74-27.88,14.2-30.57,9.54-.77-1.34,0-2.92,1.59-4.53-16.99,9.69-41.59,22.39-44.74,16.61-1.18-2.16-.83-4.83.77-7.78,6.21.99,12.33-2.3,17.94-5.28,10.72-5.7,21.82-10.66,32.91-15.61-1.85,1.74-.63,5.15,1.65,6.27,2.28,1.12,5,.63,7.46-.02,7.92-2.11,15.46-5.69,22.11-10.49-1.54,1.56-3.21,3.69-2.37,5.71.88,2.13,3.79,2.34,6.06,1.97,4.23-.7,8.27-2.24,12.24-3.85,7.45-3.02,14.96-6.42,20.72-12.02,5.63-5.48,9.34-13.49,7.91-21.18.12.02.24.05.36.07,2.7,7.89.72,16.9-3.98,23.79Z"/>
        <path class="cls-10" d="M164.64,16.88l-.99-1.76s-4.31-.44-7.55-2.44c-1.66-1.03-3.04-1.66-4.21-1.87-1.53-.27-2.94.83-3.21,2.35-.39,2.23-.43,5.96,3.34,7.11,5.5,1.66,12.62-3.39,12.62-3.39Z"/>
        <path class="cls-7" d="M172.06,23.77c0,.14-.03.28-.05.42,0,0-2.07-4.36-8.34-3.93,0,0-1.27-1.71-1.24-4.17,0-.08,0-.16,0-.25l3.1-1.87s7.09,4.07,6.52,9.8Z"/>
        <path class="cls-4" d="M97.75,63.31c-1.23,1.26-2.11,2.85-2.55,4.56-.16.63-.25,1.35.1,1.91.43.69,1.4.87,2.18.63.78-.24,1.41-.81,2.01-1.37-.08.91-.67,1.78-.94,2.66-.27.87-.33,1.93.28,2.61.4.44,1.02.64,1.62.63.6-.01,1.17-.21,1.72-.46,1.57-.71,2.95-1.84,3.95-3.24-1.12.7-2.55,1.1-3.86,1.31-.52.09-1.11.11-1.52-.22-.46-.37-.52-1.04-.48-1.63.09-1.29.49-2.55,1.16-3.65-1.02.46-2.1.85-3.12,1.31-.58.26-1.3.5-1.79.1-.26-.21-.38-.57-.37-.91,0-.34.12-.67.23-.99.42-1.13.76-2.23,1.39-3.26Z"/>
        <path class="cls-4" d="M111.77,79.13c-.88.91-1.52,2.05-1.83,3.27-.12.46-.18.97.07,1.37.31.5,1.01.63,1.57.45.56-.18,1.01-.58,1.44-.98-.06.66-.48,1.28-.68,1.91-.2.63-.24,1.38.2,1.87.29.32.73.46,1.16.45.43,0,.84-.15,1.23-.33,1.13-.51,2.11-1.32,2.84-2.33-.81.5-1.83.79-2.77.94-.37.06-.8.08-1.09-.16-.33-.26-.37-.75-.35-1.17.06-.92.35-1.83.83-2.62-.73.33-1.51.61-2.24.94-.41.19-.93.36-1.29.07-.19-.15-.27-.41-.27-.65,0-.24.08-.48.17-.71.3-.81.54-1.6,1-2.34Z"/>
        <path class="cls-4" d="M83.9,79.71c-.88.91-1.52,2.05-1.83,3.27-.12.46-.18.97.07,1.37.31.5,1.01.63,1.57.45.56-.18,1.01-.58,1.44-.98-.06.65-.48,1.28-.68,1.91-.2.63-.24,1.38.2,1.87.29.32.73.46,1.16.45.43,0,.84-.15,1.23-.33,1.13-.51,2.11-1.32,2.84-2.33-.81.5-1.83.79-2.77.94-.37.06-.8.08-1.09-.16-.33-.26-.37-.75-.35-1.17.06-.92.35-1.83.83-2.62-.73.33-1.51.61-2.24.94-.41.19-.93.36-1.29.07-.19-.15-.27-.41-.27-.65,0-.24.08-.48.17-.71.3-.81.54-1.6,1-2.34Z"/>
        <path class="cls-4" d="M54.6,86.11c-.88.91-1.52,2.05-1.83,3.27-.12.46-.18.97.07,1.37.31.5,1.01.63,1.57.45.56-.18,1.01-.58,1.44-.98-.06.65-.48,1.28-.68,1.91-.2.63-.24,1.38.2,1.87.29.32.73.46,1.16.45.43,0,.84-.15,1.23-.33,1.13-.51,2.11-1.32,2.84-2.33-.81.5-1.83.79-2.77.94-.37.06-.8.08-1.09-.16-.33-.27-.37-.75-.35-1.17.06-.92.35-1.83.83-2.62-.73.33-1.51.61-2.24.94-.41.19-.93.36-1.29.07-.19-.15-.27-.41-.27-.65,0-.24.08-.48.17-.71.3-.81.54-1.6,1-2.34Z"/>
        <path class="cls-4" d="M32.2,101.75c-.14.75-.59,1.39-.87,2.1-.28.71-.36,1.6.17,2.15.45.47,1.18.52,1.82.47,2.29-.2,4.47-1.46,5.8-3.34-1.03.74-2.35,1.23-3.53,1.7-.65.25-1.37.46-2.02.22-.63-.24-1.05-.87-1.22-1.52-.16-.66-.2-1.09-.15-1.77Z"/>
        <g>
          <path class="cls-6" d="M12.78,141.88c2.27.46,4.5,1.31,6.3,2.77,1.8,1.46,3.14,3.57,3.36,5.88.22,2.31-.82,4.77-2.8,5.97-1.83,1.11-4.25,1.03-6.15.03-1.9-1-3.29-2.8-4.07-4.8-.77-2-.97-4.18-.88-6.33.05-1.22.28-2.59,1.29-3.27.84-.56,1.95-.45,2.95-.25Z"/>
          <path class="cls-12" d="M13.02,144.04c1.24.25,2.46.72,3.44,1.51.98.79,1.71,1.95,1.83,3.21s-.45,2.6-1.53,3.26c-1,.61-2.32.56-3.36.02s-1.8-1.53-2.22-2.62c-.42-1.09-.53-2.28-.48-3.45.03-.66.15-1.41.7-1.78.46-.31,1.07-.25,1.61-.14Z"/>
        </g>
        <g>
          <path class="cls-6" d="M30.49,127.9c2.31-.23,4.69-.09,6.84.77,2.15.85,4.06,2.47,4.95,4.61.89,2.14.63,4.8-.9,6.53-1.42,1.61-3.75,2.25-5.86,1.86-2.11-.39-3.98-1.7-5.31-3.38-1.33-1.68-2.17-3.71-2.72-5.78-.31-1.18-.5-2.56.26-3.5.64-.79,1.73-1.01,2.74-1.11Z"/>
          <path class="cls-12" d="M31.36,129.89c1.26-.13,2.56-.05,3.73.42,1.18.47,2.22,1.35,2.7,2.52s.35,2.62-.49,3.56c-.77.88-2.05,1.23-3.2,1.02-1.15-.21-2.17-.93-2.9-1.84-.73-.92-1.18-2.02-1.48-3.15-.17-.64-.27-1.39.14-1.91.35-.43.94-.55,1.49-.61Z"/>
        </g>
        <g>
          <path class="cls-6" d="M52.1,121.95c2.22-.67,4.59-.97,6.86-.54,2.28.43,4.46,1.66,5.74,3.59,1.28,1.93,1.53,4.59.36,6.59-1.09,1.85-3.26,2.92-5.41,2.94-2.14.02-4.23-.91-5.86-2.31-1.63-1.4-2.83-3.23-3.77-5.16-.53-1.1-.98-2.41-.41-3.49.48-.89,1.51-1.32,2.48-1.61Z"/>
          <path class="cls-12" d="M53.33,123.74c1.21-.36,2.5-.53,3.74-.3,1.24.23,2.43.9,3.13,1.96.7,1.05.84,2.5.19,3.59-.59,1.01-1.78,1.59-2.95,1.6-1.17.01-2.31-.5-3.19-1.26-.89-.76-1.54-1.76-2.06-2.81-.29-.6-.53-1.32-.22-1.9.26-.49.82-.72,1.35-.88Z"/>
        </g>
        <g>
          <path class="cls-6" d="M73.71,135.27c2.22-.67,4.59-.97,6.86-.54,2.28.43,4.46,1.66,5.74,3.59,1.28,1.93,1.53,4.59.36,6.58-1.09,1.85-3.26,2.92-5.41,2.94-2.14.02-4.23-.91-5.86-2.31-1.63-1.4-2.83-3.23-3.77-5.16-.53-1.1-.98-2.41-.41-3.49.48-.89,1.51-1.32,2.48-1.61Z"/>
          <path class="cls-12" d="M74.94,137.05c1.21-.36,2.5-.53,3.74-.3,1.24.23,2.43.9,3.13,1.96.7,1.05.84,2.5.19,3.59-.59,1.01-1.78,1.59-2.95,1.6-1.17.01-2.31-.5-3.19-1.26s-1.54-1.76-2.06-2.81c-.29-.6-.53-1.32-.22-1.9.26-.49.82-.72,1.35-.88Z"/>
        </g>
        <g>
          <path class="cls-6" d="M89.67,161.91c2.22-.67,4.59-.97,6.86-.54,2.28.43,4.46,1.66,5.74,3.59,1.28,1.93,1.53,4.59.36,6.58-1.09,1.85-3.26,2.92-5.41,2.94-2.14.02-4.23-.91-5.86-2.31-1.63-1.4-2.83-3.23-3.77-5.16-.53-1.1-.98-2.41-.41-3.49.48-.89,1.51-1.32,2.48-1.61Z"/>
          <path class="cls-12" d="M90.9,163.7c1.21-.36,2.5-.53,3.74-.3,1.24.23,2.43.9,3.13,1.96.7,1.05.84,2.5.19,3.59-.59,1.01-1.78,1.59-2.95,1.6-1.17.01-2.31-.5-3.19-1.26-.89-.76-1.54-1.76-2.06-2.81-.29-.6-.53-1.32-.22-1.9.26-.49.82-.72,1.35-.88Z"/>
        </g>
        <g>
          <path class="cls-6" d="M116.17,190.48c1.88.3,3.75.92,5.28,2.05,1.53,1.13,2.71,2.82,2.97,4.71.26,1.89-.51,3.95-2.09,5.01-1.47.98-3.46,1-5.06.24-1.6-.75-2.81-2.19-3.51-3.81-.71-1.62-.94-3.41-.95-5.17,0-1,.14-2.14.95-2.73.67-.49,1.59-.44,2.41-.31Z"/>
          <path class="cls-12" d="M116.45,192.24c1.03.16,2.04.5,2.88,1.12.84.62,1.48,1.54,1.62,2.57.14,1.03-.28,2.15-1.14,2.73-.8.53-1.89.54-2.76.13s-1.53-1.19-1.92-2.08c-.39-.88-.51-1.86-.52-2.82,0-.55.08-1.17.52-1.49.37-.27.87-.24,1.32-.17Z"/>
        </g>
        <g>
          <path class="cls-6" d="M134.08,215.57c1.66.93,3.2,2.15,4.25,3.75,1.05,1.59,1.57,3.58,1.16,5.45-.41,1.86-1.84,3.53-3.69,3.98-1.72.41-3.59-.26-4.83-1.51-1.24-1.26-1.88-3.02-1.99-4.78-.11-1.76.29-3.52.89-5.18.34-.94.87-1.96,1.83-2.24.8-.23,1.64.13,2.37.54Z"/>
          <path class="cls-12" d="M133.73,217.32c.91.51,1.75,1.17,2.32,2.04.57.87.86,1.96.64,2.97s-1,1.93-2.01,2.17c-.94.23-1.96-.14-2.64-.82s-1.03-1.65-1.08-2.61c-.06-.96.16-1.92.49-2.83.19-.51.47-1.07,1-1.22.44-.13.9.07,1.29.3Z"/>
        </g>
        <g>
          <path class="cls-1" d="M140.66,188.54c1.91.05,3.84.41,5.51,1.33,1.67.92,3.06,2.44,3.57,4.28s.02,3.98-1.41,5.24c-1.32,1.17-3.3,1.45-4.98.92-1.68-.53-3.07-1.8-3.99-3.3-.92-1.51-1.39-3.25-1.63-5-.14-.99-.15-2.14.57-2.83.6-.58,1.52-.65,2.35-.63Z"/>
          <path class="cls-5" d="M141.17,190.25c1.04.03,2.09.22,3,.73s1.67,1.33,1.95,2.33c.28,1,.01,2.17-.77,2.86-.72.64-1.8.79-2.72.5s-1.68-.98-2.18-1.8c-.5-.82-.76-1.77-.89-2.73-.07-.54-.08-1.17.31-1.55.33-.32.83-.35,1.28-.34Z"/>
        </g>
        <g>
          <path class="cls-1" d="M124.37,162.04c1.85-.48,3.8-.65,5.66-.23,1.86.43,3.61,1.51,4.6,3.13.99,1.63,1.11,3.82.08,5.43-.95,1.48-2.78,2.3-4.54,2.24-1.76-.05-3.45-.89-4.74-2.09-1.29-1.2-2.23-2.75-2.93-4.36-.4-.92-.73-2.02-.22-2.88.42-.72,1.28-1.04,2.09-1.25Z"/>
          <path class="cls-5" d="M125.33,163.55c1.01-.26,2.07-.36,3.09-.12s1.97.82,2.51,1.71c.54.89.61,2.09.04,2.96-.52.81-1.51,1.25-2.48,1.22-.96-.03-1.88-.48-2.59-1.14-.71-.65-1.21-1.5-1.6-2.38-.22-.5-.4-1.1-.12-1.57.23-.39.7-.57,1.14-.68Z"/>
        </g>
        <g>
          <path class="cls-1" d="M105.73,137.93c1.85-.48,3.8-.65,5.66-.23s3.61,1.51,4.6,3.13c.99,1.63,1.11,3.82.08,5.43-.95,1.48-2.78,2.3-4.54,2.24s-3.45-.89-4.74-2.09c-1.29-1.2-2.23-2.75-2.93-4.36-.4-.92-.73-2.02-.22-2.88.42-.72,1.28-1.04,2.09-1.25Z"/>
          <path class="cls-5" d="M106.68,139.44c1.01-.26,2.07-.36,3.09-.12,1.01.23,1.97.82,2.51,1.71.54.89.61,2.09.04,2.96-.52.81-1.51,1.25-2.48,1.22-.96-.03-1.88-.48-2.59-1.14-.71-.65-1.21-1.5-1.6-2.38-.22-.5-.4-1.1-.12-1.57.23-.39.7-.57,1.14-.68Z"/>
        </g>
        <g>
          <path class="cls-1" d="M106.76,202.56c1.82.58,3.57,1.47,4.91,2.82,1.35,1.35,2.26,3.2,2.23,5.11-.03,1.91-1.09,3.83-2.82,4.64-1.6.75-3.57.47-5.04-.52-1.47-.98-2.45-2.59-2.9-4.29-.46-1.7-.42-3.51-.16-5.25.15-.99.46-2.09,1.35-2.56.74-.39,1.64-.2,2.43.06Z"/>
          <path class="cls-5" d="M106.77,204.34c.99.32,1.95.8,2.68,1.54.73.74,1.23,1.74,1.22,2.78s-.6,2.09-1.54,2.53c-.87.41-1.95.25-2.75-.28-.8-.54-1.34-1.41-1.58-2.34-.25-.93-.23-1.91-.09-2.87.08-.54.25-1.14.73-1.4.4-.21.89-.11,1.33.03Z"/>
        </g>
        <g>
          <path class="cls-1" d="M87.82,203.55c1.82.58,3.57,1.47,4.91,2.82,1.35,1.35,2.26,3.2,2.23,5.1-.03,1.91-1.09,3.83-2.82,4.64-1.6.75-3.57.47-5.04-.52-1.47-.98-2.45-2.59-2.9-4.29-.46-1.7-.42-3.51-.16-5.25.15-.99.46-2.09,1.35-2.56.74-.39,1.64-.2,2.43.06Z"/>
          <path class="cls-5" d="M87.82,205.34c.99.32,1.95.8,2.68,1.54.73.74,1.23,1.74,1.22,2.78s-.6,2.09-1.54,2.53c-.87.41-1.95.25-2.75-.28-.8-.54-1.34-1.41-1.58-2.34-.25-.93-.23-1.91-.09-2.87.08-.54.25-1.14.73-1.4.4-.21.89-.11,1.33.03Z"/>
        </g>
        <g>
          <path class="cls-1" d="M130.07,263.92c.23,1.89.15,3.86-.51,5.64-.67,1.79-1.97,3.38-3.71,4.15-1.74.77-3.94.6-5.39-.63-1.35-1.14-1.91-3.05-1.63-4.79.28-1.74,1.33-3.3,2.69-4.43,1.36-1.13,3.01-1.85,4.71-2.34.96-.28,2.09-.46,2.89.16.66.51.86,1.41.96,2.23Z"/>
          <path class="cls-5" d="M128.45,264.67c.13,1.03.08,2.1-.28,3.08-.36.97-1.07,1.85-2.02,2.27-.95.42-2.15.33-2.94-.34-.73-.62-1.04-1.66-.89-2.62.15-.95.72-1.8,1.47-2.42.74-.61,1.64-1.01,2.57-1.28.52-.15,1.14-.25,1.57.08.36.28.47.77.53,1.22Z"/>
        </g>
        <g>
          <path class="cls-6" d="M72.76,161.48c2.25.56,4.44,1.51,6.17,3.05,1.74,1.54,2.98,3.71,3.09,6.02.11,2.31-1.03,4.73-3.06,5.84-1.88,1.03-4.3.84-6.15-.24-1.85-1.08-3.17-2.95-3.85-4.98-.68-2.03-.78-4.22-.6-6.36.1-1.21.4-2.57,1.44-3.21.87-.53,1.97-.36,2.95-.12Z"/>
          <path class="cls-12" d="M72.9,163.64c1.23.31,2.42.82,3.37,1.66s1.63,2.02,1.69,3.28-.56,2.58-1.67,3.19c-1.03.56-2.34.46-3.35-.13-1.01-.59-1.73-1.61-2.1-2.72-.37-1.11-.43-2.3-.32-3.47.06-.66.22-1.4.78-1.75.47-.29,1.08-.2,1.61-.06Z"/>
        </g>
        <g>
          <path class="cls-6" d="M44.07,162.96c2.25.56,4.44,1.51,6.17,3.05,1.74,1.54,2.98,3.71,3.09,6.02.11,2.31-1.03,4.73-3.06,5.84-1.88,1.03-4.3.84-6.15-.24-1.85-1.08-3.17-2.95-3.85-4.98-.68-2.03-.78-4.22-.6-6.36.1-1.21.4-2.57,1.44-3.21.87-.53,1.97-.36,2.95-.12Z"/>
          <path class="cls-12" d="M44.21,165.13c1.23.31,2.42.82,3.37,1.66.95.84,1.63,2.02,1.69,3.28.06,1.26-.56,2.58-1.67,3.19-1.03.56-2.34.46-3.35-.13-1.01-.59-1.73-1.61-2.1-2.72-.37-1.11-.43-2.3-.32-3.47.06-.66.22-1.4.78-1.75.47-.29,1.08-.2,1.61-.06Z"/>
        </g>
        <path class="cls-9" d="M156.45,16.98c.06-.69.12-1.39-.02-2.07-.15-.68-.53-1.34-1.15-1.65-.82-.4-1.87-.07-2.46.62s-.76,1.67-.63,2.58c.25-.46.67-.98,1.04-1.34.37-.36.88-.62,1.4-.57.53.05.98.43,1.25.88.27.45.48,1.03.57,1.55Z"/>
      </g>
      <path class="cls-3" d="M172.06,23.77c0,.14-.03.28-.05.42,0,0-2.07-4.36-8.34-3.93,0,0-1.27-1.71-1.24-4.17,2.46,1.14,4.79,2.53,6.96,4.14.68.51,1.35,1.05,1.84,1.73.39.55.66,1.16.83,1.81Z"/>
    </g>
  </g>
</svg>