<?xml version="1.0" encoding="UTF-8"?>
<svg id="Capa_2" data-name="Capa 2" xmlns="http://www.w3.org/2000/svg" viewBox="0 0 154.26 137.3">
  <defs>
    <style>
      .cls-1 {
        fill: #7d593e;
      }

      .cls-2 {
        fill: #bb9f91;
      }

      .cls-3 {
        fill: #2c3133;
      }

      .cls-4 {
        fill: #753d07;
      }

      .cls-5 {
        fill: #727f85;
      }

      .cls-6 {
        fill: #543e30;
      }

      .cls-7 {
        fill: #1a1d1f;
      }

      .cls-8 {
        fill: #0f1112;
      }

      .cls-9 {
        fill: #ffd28e;
      }

      .cls-10 {
        fill: #946949;
      }

      .cls-11 {
        fill: #5c3005;
      }
    </style>
  </defs>
  <g id="OBJECTS">
    <g>
      <g>
        <path class="cls-10" d="M134.21,119.42s-30.52,23.02-70.57,16.82c-1.05-.24-2.06-.48-3.03-.74-15.76-4.17-20.87-10.87-20.87-10.87v.02c.05,1.17-1.2,1.94-2.31,1.57-2.17-.74-4.01-2.45-4.79-4.61-.02.15-.03.29-.05.44-.2,1.76-2.12,2.75-3.68,1.93-4.61-2.41-8.63-5.92-11.7-10.12-2.24-3.05-3.96-6.48-5.04-10.11,13.2-8.73,26.5-17.9,37.94-28.85,2.39-.06,4.76-.31,7.1-.76.02,0,.05-.01.07-.01,3.02-.57,5.98-1.45,8.83-2.62,5.63-2.31,10.81-5.73,15.1-10.05.44-.44.86-.89,1.28-1.35.73-4.45,1.16-8.99,1.24-13.53.14-7.58-.7-15.17-2.74-22.42,5.29-2.69,10.83-4.5,16.66-5.02.91-.09,1.83-.14,2.75-.16,1.11,2.22,2.43,4.27,3.54,6.5.43.85.86,1.73.94,2.68.07.95-.31,2-1.16,2.44-.41.21-.92.21-1.35.03.99,1.22,2.01,2.56,2.98,3.67.72.81,1.46,1.99.83,2.87-.39.55-1.19.68-1.83.47-.65-.2-1.18-.65-1.68-1.1,2.86,3.35,6.18,6.35,9.87,8.8.86.56,1.74,1.1,2.63,1.6,0,0,.02,0,.03.02,1.39.79,2.82,1.49,4.29,2.11,1.25,8.76,2.72,17.5,4.39,26.2,2.06,10.72,4.45,21.39,7.12,31.96,1.03,4.08,2.1,8.14,3.21,12.19Z"/>
        <path class="cls-1" d="M115.43,51.95c-2.37-3-6.32-4.1-9.85-5.55-3.54-1.44-7.25-3.92-7.71-7.71-.12-1,0-2.03-.3-2.98-.21-.66-.74-1.28-1.36-1.5,1.43-.17,2.66-1.68,2.68-3.21.02-1.36-.63-2.62-1.52-3.69.65.18,1.46.02,1.9-.51.78-.96.64-2.37.33-3.57-.39-1.46-1.02-2.91-1.95-4.09.91-.09,1.83-.14,2.75-.16,1.11,2.22,2.43,4.27,3.54,6.5.43.85.86,1.73.94,2.68.07.95-.31,2-1.16,2.44-.41.21-.92.21-1.35.03.99,1.22,2.01,2.56,2.98,3.67.72.81,1.46,1.99.83,2.87-.39.55-1.19.68-1.83.47-.65-.2-1.18-.65-1.68-1.1,2.86,3.35,6.18,6.35,9.87,8.8.86.56,1.74,1.1,2.63,1.6.26,1.65.35,3.34.26,5.01Z"/>
        <path class="cls-6" d="M123.88,75.27c-.1.28-.21.56-.33.84-1.45,3.37-3.69,6.34-5.9,9.27-1.2,1.59-2.68,3.33-4.67,3.37-2.54.04-4.18-2.7-4.81-5.16-.55-2.14-.77-4.36-.64-6.56.07-1.22.3-2.54,1.2-3.36.9-.82,2.65-.72,3.05.43-.7-2.04-1.41-4.15-1.26-6.31.15-2.15,1.38-4.38,3.44-5.03-2.58-3.2-2.59-7.73-2.09-11.81.22-1.85.53-3.73.67-5.61,2.2,1.45,4.52,2.71,6.95,3.73,1.25,8.76,2.72,17.5,4.39,26.2Z"/>
        <path class="cls-6" d="M60.92,98.09c-2.15,6.72-3.47,13.72-3.9,20.77-.21,3.33-.46,7.15-3.12,9.15-.87.65-2.03,1.16-2.28,2.21-2.74-.86-4.84-3.2-5.96-5.85-1.12-2.65-1.35-5.59-1.29-8.46.14-6.11,1.57-12.19,4.19-17.72,1.46-3.09,3.29-6.01,4.74-9.1,2.2-4.69,3.53-9.79,3.91-14.95.02,0,.05-.01.07-.01,3.02-.57,5.98-1.45,8.83-2.62.15.51.23,1.05.3,1.59,1.05,8.54-2.87,16.79-5.49,24.99Z"/>
        <path class="cls-6" d="M96.02,91c2.14,4.22,2.97,9.1,2.35,13.79-.87.41-1.95.34-2.76-.19.66,1.42,1.04,2.96,1.12,4.52.06,1.13-.07,2.36-.81,3.21-.74.86-2.26,1.1-2.98.22,1.17,5.22-.13,10.94-3.44,15.14-3.3,4.2-8.55,6.81-13.9,6.9,3.3-3.62,5.02-8.4,6.17-13.15,4.77-19.54,1.36-39.82-.56-59.98.44-.44.86-.89,1.28-1.35.73-4.45,1.16-8.99,1.24-13.53,8.22,12.16,13.41,26.34,14.95,40.94.1.94.17,1.94-.28,2.77-.46.83-1.65,1.31-2.38.71Z"/>
        <path class="cls-10" d="M51.49,74.91c-4.71-1.91-9.59-3.88-14.47-5.84-5.3-2.14-10.61-4.27-15.72-6.34,0-1.87,0-3.75.06-5.62.36-14.31,2.43-28.58,6.11-42.41,1.12.26,2.27.5,3.42.72,4.22.8,8.58,1.38,12.7,2.35.97,3.66,2.04,7.31,3.01,10.97.26,1.01.39,2.37-.55,2.83-.6.3-1.35,0-1.79-.49-.03-.04-.05-.08-.07-.11.5,1.35.83,2.74,1.18,4.17.27,1.12.37,2.52-.56,3.2-.61.44-1.47.36-2.14.01,2.48,2.76,4.16,6.09,4.77,9.82-1.21.4-2.65-.03-3.44-1.02,3.79,5.59,6.17,11.83,7.11,18.37.13.85.23,1.7.29,2.56.02.14.04.29.04.44.17,2.11.18,4.24.05,6.39Z"/>
        <path class="cls-1" d="M51.49,74.91c-4.71-1.91-9.59-3.88-14.47-5.84-.02-.02-.04-.05-.06-.07-.31-.36-.63-.74-.76-1.19-.19-.68.05-1.39.27-2.06,2.85-8.71,1.65-18.64-3.12-26.46.54.19,1.23.13,1.6-.33.72-.89.47-2.18.19-3.28-.57-2.25-1.14-4.5-1.72-6.75.8.68,1.81,1.1,2.85,1.2.78-3.14-1.21-6.21-2.95-8.93-1.11-1.75-2.18-3.78-2.43-5.78,4.22.8,8.58,1.38,12.7,2.35.97,3.66,2.04,7.31,3.01,10.97.26,1.01.39,2.37-.55,2.83-.6.3-1.35,0-1.79-.49-.03-.04-.05-.08-.07-.11.5,1.35.83,2.74,1.18,4.17.27,1.12.37,2.52-.56,3.2-.61.44-1.47.36-2.14.01,2.48,2.76,4.16,6.09,4.77,9.82-1.21.4-2.65-.03-3.44-1.02,3.79,5.59,6.17,11.83,7.11,18.37.13.85.23,1.7.29,2.56.02.14.04.29.04.44.17,2.11.18,4.24.05,6.39Z"/>
        <path class="cls-4" d="M144.51,12.95s-74.85,26.77-135.7,3.55l1.66-6.01,1.7-6.14s52.83,20.85,129.05-2.36l1.49,4.95,1.8,6.01Z"/>
        <path class="cls-11" d="M142.71,6.94c-11.62,3.82-77.27,23.63-132.24,3.55l1.7-6.14s52.83,20.85,129.05-2.36l1.49,4.95Z"/>
        <g>
          <path class="cls-10" d="M27.75,11.2c-1.21-1.29-1.62-3.22-1.22-4.94.4-1.72,1.55-3.22,2.99-4.24,1.44-1.02,3.17-1.59,4.92-1.85,2.25-.34,4.62-.16,6.7.76,2.08.92,3.85,2.65,4.58,4.81s.3,4.73-1.28,6.37c-5.49-.22-11.2-.68-16.69-.9Z"/>
          <path class="cls-9" d="M29.36,7.49c1.32-.48,2.83.36,3.52,1.58s.73,2.69.61,4.09c-.14,1.61-.47,3.21-.98,4.74-.12.36-.26.73-.51,1.01-.25.28-.65.47-1.02.37-.43-.12-.68-.56-.87-.96-.73-1.53-1.39-3.11-1.95-4.71-.39-1.09-.74-2.24-.64-3.39s.75-2.33,1.85-2.73Z"/>
          <path class="cls-9" d="M34.89,7.49c1.32-.48,2.83.36,3.52,1.58s.73,2.69.61,4.09c-.14,1.61-.47,3.21-.98,4.74-.12.36-.26.73-.51,1.01-.25.28-.65.47-1.02.37-.43-.12-.68-.56-.87-.96-.73-1.53-1.39-3.11-1.95-4.71-.39-1.09-.74-2.24-.64-3.39s.75-2.33,1.85-2.73Z"/>
          <path class="cls-9" d="M40.42,7.49c1.32-.48,2.83.36,3.52,1.58.69,1.22.73,2.69.61,4.09-.14,1.61-.47,3.21-.98,4.74-.12.36-.26.73-.51,1.01-.25.28-.65.47-1.02.37-.43-.12-.68-.56-.87-.96-.73-1.53-1.39-3.11-1.95-4.71-.39-1.09-.74-2.24-.64-3.39s.75-2.33,1.85-2.73Z"/>
        </g>
        <g>
          <path class="cls-10" d="M81.33,16.24c-1.21-1.29-1.62-3.22-1.22-4.94.4-1.72,1.55-3.22,2.99-4.24,1.44-1.02,3.17-1.59,4.92-1.85,2.25-.34,4.62-.16,6.7.76,2.08.92,3.85,2.65,4.58,4.81.73,2.16.3,4.73-1.28,6.37-5.49-.22-11.2-.68-16.69-.9Z"/>
          <path class="cls-9" d="M82.94,12.54c1.32-.48,2.83.36,3.52,1.58s.73,2.69.61,4.09c-.14,1.61-.47,3.21-.98,4.74-.12.36-.26.73-.51,1.01-.25.28-.65.47-1.02.37-.43-.12-.68-.56-.87-.96-.73-1.53-1.39-3.11-1.95-4.71-.39-1.09-.74-2.24-.64-3.39.1-1.16.75-2.33,1.85-2.73Z"/>
          <path class="cls-9" d="M88.47,12.54c1.32-.48,2.83.36,3.52,1.58s.73,2.69.61,4.09c-.14,1.61-.47,3.21-.98,4.74-.12.36-.26.73-.51,1.01-.25.28-.65.47-1.02.37-.43-.12-.68-.56-.87-.96-.73-1.53-1.38-3.11-1.95-4.71-.39-1.09-.74-2.24-.64-3.39.1-1.16.75-2.33,1.85-2.73Z"/>
          <path class="cls-9" d="M94.01,12.54c1.32-.48,2.83.36,3.52,1.58.69,1.22.73,2.69.61,4.09-.14,1.61-.47,3.21-.98,4.74-.12.36-.26.73-.51,1.01-.25.28-.65.47-1.02.37-.43-.12-.68-.56-.87-.96-.73-1.53-1.39-3.11-1.95-4.71-.39-1.09-.74-2.24-.64-3.39.1-1.16.75-2.33,1.85-2.73Z"/>
        </g>
        <path class="cls-10" d="M139.48,103.93s.96-.38,2.9.78c3.29,1.74-6.19,8.12-6.19,8.12,2.9,2.9-1.98,6.59-1.98,6.59l-6.34-2.33-2.63-3.36-16.72-21.4s-1.35-4.65.39-11.29c1.74-6.64,5.22-2.84,5.22-2.84l-.38-6.28c-.39-6.28,3.09-5.9,3.09-5.9,0,0-2.71-5.03-1.74-13.16.16-1.94.19-3.92.1-5.9-.74-16.75-9.4-34.03-7.84-38.01.78-1.99,2.95-3.98,6.01-4.48,3.79-.62,8.94,1.03,14.5,7.77,29.76,39.24,23.48,55.07,23.22,55.69.13-.21,1.22-1.85,2.26-.95,2.98,2.03-2.25,13.97-3.67,17.05.46-.76,1.4-1.66,2.95-.23,4.45,3.67-13.15,20.13-13.15,20.13Z"/>
        <path class="cls-1" d="M139.48,103.93s.96-.38,2.9.78c3.29,1.74-6.19,8.12-6.19,8.12,2.9,2.9-1.98,6.59-1.98,6.59,0,0-30.52,23.02-70.57,16.82-1.05-.24-2.06-.48-3.03-.74-.63-1.43-1.04-2.95-1.18-4.53,12.38,1.88,25.2.79,37.08-3.17,8.39-2.79,16.25-6.96,24-11.23,1.61-.89,3.23-1.79,4.73-2.84,1.11-.76,2.16-1.6,3.1-2.57,1.1-1.14,2.04-2.48,2.66-3.93.65-1.48.96-3.06.8-4.66,4.22-2.56,6.71-7.73,6.06-12.62,3.56-2.7,5.6-7.29,5.21-11.75.25.85,1.49-.08,1.69-.95,1.41-6.15.78-12.75-1.78-18.52.41.95,1.41,1.61,2.44,1.62-.1-22.46-12.76-44.42-32.05-55.88,3.79-.62,8.94,1.03,14.5,7.77,29.76,39.24,23.48,55.07,23.22,55.69.13-.21,1.22-1.85,2.26-.95,2.98,2.03-2.25,13.97-3.67,17.05.46-.76,1.4-1.66,2.95-.23,4.45,3.67-13.15,20.13-13.15,20.13Z"/>
        <path class="cls-10" d="M92.83,101.42c.74,2.6,1,5.32.77,8.01-.13,1.52-2.32,1.94-2.82.5-.04-.09-.06-.19-.07-.28-.53,1.09-.3,2.4.08,3.56.38,1.15.89,2.3.89,3.52,0,1.22-.73,2.55-1.94,2.74-.55.09-1.09-.21-1.44-.65.08,5.84-2.84,11.67-7.63,15.02-2.46,1.72-8.75,3.24-15.29,2.62-7.45-.7-15.22-4.17-18.03-13.29-2.08-6.72-.39-14.06,2.3-20.56,2.68-6.5,6.4-12.55,8.85-19.15,5.61-15.13,3.91-32.79-4.49-46.57-2.53-4.14-5.64-7.98-7.36-12.52-2.18-5.75-1.64-13.23,4.87-16.12.13-.06.26-.12.39-.17,2.89-1.17,6.14-1.05,9.08.02,5.79,2.1,9.64,6.9,13.15,11.77,1.01,1.39.26,3.49-1.45,3.7-.24.03-.48.03-.72-.02,3.25.81,6.11,2.94,7.96,5.72.39.59.57,1.23.57,1.86,0,1.66-1.25,3.2-3.13,3.28,1.76.92,3.59,1.9,4.73,3.53,1.13,1.63,1.31,4.11-.15,5.45,7.67,14.17,12.31,29.98,13.51,46.05-.4-.23-.8-.47-1.21-.7.48,2.87.95,5.74,1.42,8.6.2,1.17.35,2.49-.38,3.42-.56.72-1.61.97-2.46.66Z"/>
        <path class="cls-6" d="M58.27,83.85c-.37.3-.8.5-1.27.61.35,1.4.43,2.85.24,4.26-.29,2.12-1.32,2.97-2.14,3.3-.22.09-.45.15-.68.18.06.74.03,1.49-.09,2.21-.33,1.97-1.54,3.32-3.09,3.45h-.03c.1,1.35,0,2.7-.32,4.03-.44,1.89-1.46,3.06-2.88,3.3h-.03c.08.68,0,1.43-.37,2.15-.51.95-1.5,1.58-2.66,1.75-.05.29-.14.58-.29.85-.57,1.07-1.75,1.65-3.3,1.65-.13,0-.26,0-.39,0-.39-.02-.77-.06-1.16-.13,0,0,0,.02,0,.03-.37,1.62-2,2.64-4.24,2.68h-.24c-1.21.01-2.43-.15-3.62-.45-.12.53-.53.97-1.08,1.11-.95.24-1.93.36-2.92.36-1.31,0-2.62-.22-3.86-.63-.27.42-.74.68-1.26.68h-.09c-1.84-.12-3.63-.59-5.28-1.37-2.24-3.05-3.96-6.48-5.04-10.11,13.2-8.73,26.5-17.9,37.94-28.85,2.41-.06,4.81-.32,7.17-.77-.1.45-.3.87-.58,1.23.93.93,1.66,2.04,2.25,3.36.92,2.09.66,4.05-.68,5.13Z"/>
        <path class="cls-6" d="M51.49,74.91c-9.82-3.99-20.37-8.2-30.19-12.18,0-1.87,0-3.75.06-5.62,1.98-.55,4.06-.97,6.24-1.28.39-.06.8-.11,1.24-.11.4,0,.76.04,1.11.13,1.12.28,1.98,1.06,2.29,2.06,1.18-.11,2.43-.16,3.77-.16.79,0,1.57.02,2.34.05.77.03,2.82.11,3.83,1.75.33.55.48,1.2.43,1.82,2.27.37,4.34,1.06,6.19,2.07.77.42,1.76,1.06,2.31,2.08.17.29.3.62.37.98.1.53.07,1.07-.08,1.58-.03.12-.08.25-.13.37.06.02.11.04.17.07.17,2.11.18,4.24.05,6.39Z"/>
        <path class="cls-10" d="M57.33,82.68c-.59.48-1.48.46-2.15.1-.24-.13-.44-.31-.63-.51,1.05,1.89,1.49,4.11,1.2,6.25-.05.42-.16.87-.35,1.25-.19.39-.46.7-.86.86-.65.26-1.43-.01-1.94-.5-.11-.1-.21-.22-.3-.34.59,1.37.79,2.9.55,4.37-.17,1-.73,2.12-1.73,2.21-1.12.09-1.84-1.12-2.28-2.15.92,2.37,1.17,4.85.59,7.33-.22.94-.71,2-1.66,2.16-.64.1-1.28-.26-1.68-.77-.3-.38-.49-.82-.66-1.29.23.76.4,1.51.67,2.26.32.88.63,1.9.19,2.72-.46.84-1.58,1.14-2.51.93-.3-.06-.59-.18-.87-.31.03.02.06.05.08.07.45.52.68,1.31.35,1.91-.41.76-1.42.91-2.28.86-1.24-.08-2.46-.4-3.59-.92.07.06.15.11.21.18.49.46.81,1.14.66,1.79-.26,1.12-1.65,1.5-2.8,1.52-2.14.04-4.29-.46-6.2-1.43.64.44.89,1.28.9,2.13-2.8.72-5.89.21-8.31-1.38.59.33.88,1.11.65,1.75-3.52-.22-6.91-1.96-9.2-4.65.18.51.19,1.07-.02,1.56-3.47-1.36-6.22-4.38-7.31-7.93.1.57,0,1.18-.28,1.68-2.98-1.36-7.39-13.17-5.17-24.77.25-1.29.58-2.57,1-3.83,1.8-5.4,5.62-9.82,10.38-12.91,4.73-3.08,10.25-4.79,15.83-5.57.59-.08,1.19-.15,1.77-.01.57.15,1.12.56,1.25,1.13.12.52-.2,1.12-.68,1.25,2.65-.43,5.45-.49,8.14-.38.97.04,2.1.2,2.61,1.03.34.56.27,1.33-.15,1.82-.19.23-.46.37-.74.46,2.81.15,5.6.8,8.07,2.14.85.47,1.74,1.1,1.93,2.05.13.65-.13,1.36-.65,1.78-.41.33-.98.46-1.5.35,2.18.65,4.33,1.34,6.3,2.48.72.41,1.49.95,1.66,1.77.12.61-.16,1.28-.68,1.62-.45.29-1.05.32-1.52.09,1.85,1.07,3.08,2.45,3.96,4.44.49,1.11.69,2.6-.25,3.35Z"/>
        <path class="cls-1" d="M55.4,89.77c-.19.39-.46.7-.86.86-.65.26-1.43-.01-1.94-.5-.11-.1-.21-.22-.3-.34.59,1.37.79,2.9.55,4.37-.17,1-.73,2.12-1.73,2.21-1.12.09-1.84-1.12-2.28-2.15.92,2.37,1.17,4.85.59,7.33-.22.94-.71,2-1.66,2.16-.64.1-1.28-.26-1.68-.77-.3-.38-.49-.82-.66-1.29.23.76.4,1.51.67,2.26.32.88.63,1.9.19,2.72-.46.84-1.58,1.14-2.51.93-.3-.06-.59-.18-.87-.31.03.02.06.05.08.07.45.52.68,1.31.35,1.91-.41.76-1.42.91-2.28.86-1.24-.08-2.46-.4-3.59-.92.07.06.15.11.21.18.49.46.81,1.14.66,1.79-.26,1.12-1.65,1.5-2.8,1.52-2.14.04-4.29-.46-6.2-1.43.64.44.89,1.28.9,2.13-2.8.72-5.89.21-8.31-1.38.59.33.88,1.11.65,1.75-3.52-.22-6.91-1.96-9.2-4.65.18.51.19,1.07-.02,1.56-3.47-1.36-6.22-4.38-7.31-7.93.1.57,0,1.18-.28,1.68-2.98-1.36-7.39-13.17-5.17-24.77.29,6.74,2.29,13.43,5.88,19.14,1.76,2.79,3.93,5.41,6.75,7.12,2.82,1.72,6.36,2.44,9.48,1.36.15-.59-.08-1.25-.56-1.62,2.08.63,4.3.76,6.44.35.94-.18,1.95-.51,2.49-1.32.54-.8.27-2.15-.68-2.36,1.86-.18,3.71-.48,5.53-.9.66-.16,1.35-.35,1.85-.81.51-.46.74-1.29.34-1.84,1.9.03,3.9-.36,5.35-1.59,1.44-1.23,2.14-3.47,1.19-5.12,3.42-.03,6.45-3.3,6.23-6.71,1.86,1.1,3.37,2.64,4.51,4.45Z"/>
        <path class="cls-6" d="M18.78,106.97c-2.93,0-5.54-.97-7.35-2.74-2.7-2.62-3.3-6.62-3.52-9.4-.09-1.14-.12-2.3-.09-3.45.22-8.92,3.7-17.09,9.78-22.99,4.02-3.88,8.19-5.85,12.41-5.85,1.55,0,3.12.27,4.65.81,1.03.35,2.09.85,3.13,1.48,1.12.67,2.01,1.66,2.82,3.12.46.82.84,1.69,1.22,2.54.43.97.83,1.89,1.32,2.7,1.67,2.76,3.4,5.61,4.41,8.8,1.17,3.63,1.13,7.23-.1,10.12-1.17,2.74-3.54,5.14-6.68,6.75-2.88,1.49-6.1,2.19-8.86,2.68-1.64.28-3.15,1.33-4.48,2.26-1.57,1.11-3.12,2.21-4.98,2.7-1.19.32-2.41.48-3.62.48h-.05Z"/>
        <path class="cls-2" d="M46.54,91.72c-1.18,2.76-3.55,4.88-6.22,6.25-2.67,1.38-5.63,2.06-8.58,2.58-1.8.31-3.34,1.35-4.88,2.42-1.47,1.04-2.95,2.1-4.66,2.55-1.08.29-2.23.45-3.37.45-2.48.01-4.94-.74-6.7-2.46-2.28-2.22-2.97-5.59-3.22-8.76-.09-1.11-.12-2.23-.09-3.34.21-8.37,3.47-16.47,9.48-22.3,4.09-3.95,9.63-7.06,16.03-4.81.97.33,1.95.79,2.95,1.39,1.08.65,1.84,1.63,2.46,2.75.94,1.68,1.58,3.67,2.56,5.28,1.66,2.74,3.34,5.52,4.31,8.58.98,3.05,1.19,6.47-.07,9.42Z"/>
        <path class="cls-3" d="M27.42,85.5s1.09-5.47,4.42-7.92c0,0,3.97,3.61,2.37,6.64s-6.79,1.28-6.79,1.28Z"/>
        <path class="cls-8" d="M30.79,84.85c-.09.08-.22.09-.33.06s-.21-.1-.3-.18c-.44-.38-.67-.97-.61-1.55.02-.18.08-.39.25-.47.14-.07.32-.02.44.07.12.1.2.24.27.38.18.37.3.75.37,1.15.03.18.04.4-.1.52Z"/>
        <path class="cls-8" d="M32.68,80.95c.01-.12-.05-.23-.13-.31-.09-.08-.2-.12-.31-.15-.55-.15-1.18-.02-1.63.34-.14.12-.28.28-.26.47.02.16.16.28.31.33.15.05.31.04.47.02.4-.05.8-.16,1.17-.32.17-.07.36-.19.38-.37Z"/>
        <path class="cls-8" d="M41.17,85.25c-.1,2.46-.98,4.95-2.75,6.66-1.54,1.47-3.63,2.32-5.66,1.95-.31-.07-.62-.15-.92-.27.3-.24.59-.49.87-.75,3.52-3.21,5.95-7.6,6.84-12.28v-.02c.16-.78.26-1.58.32-2.38.26.69.49,1.39.68,2.09.44,1.63.68,3.28.62,5Z"/>
        <path class="cls-3" d="M32.76,93.86c-.31-.07-.62-.15-.92-.27.3-.24.59-.49.87-.75,2.14-.73,7.12-3.41,6.84-12.28v-.02c.16-.78.26-1.58.32-2.38.26.69.49,1.39.68,2.09.4,9.97-5.54,12.87-7.79,13.61Z"/>
        <path class="cls-7" d="M26.86,102.97c-1.47,1.04-2.95,2.1-4.66,2.55-1.08.29-2.23.45-3.37.45-1.52-3.36-2.26-7.06-2.38-10.75-.06-1.94.07-3.99,1.09-5.65,1.02-1.65,3.16-2.76,4.97-2.03,1.98.79,2.66,3.28,2.59,5.41-.07,2.13-.61,4.32,0,6.36.39,1.3,1.21,2.44,1.76,3.66Z"/>
        <path class="cls-5" d="M22.08,95.55c-.68-.09-1.37-.19-1.99-.48-.62-.29-1.17-.82-1.31-1.49-.2-.94.47-1.9,1.33-2.31.87-.41,1.87-.38,2.82-.24-.59,0-1.17.13-1.73.31-.56.18-1.08.57-1.28,1.12-.23.65.04,1.39.5,1.9s1.05.88,1.66,1.2Z"/>
        <path class="cls-7" d="M39.74,68.44c-2.4.66-4.61,2.03-6.24,3.92-1.02,1.18-1.84,2.57-3.1,3.48-1.27.91-3.22,1.17-4.28.02-1.01-1.09-.73-2.83-.15-4.2,1.5-3.53,4.69-6.27,8.36-7.36.97.33,1.95.79,2.95,1.39,1.08.65,1.84,1.63,2.46,2.75Z"/>
        <path class="cls-6" d="M88.58,38.4c.23-1.7,1.08-3.32,2.36-4.46.51-.45,1.16-.86,1.83-.71.63.14,1.07.76,1.19,1.4.13.64,0,1.29-.12,1.93.16-.48-.32-.99-.74-1.27-.42-.28-.98-.31-1.47-.17-.49.15-.92.45-1.3.79-.83.74-1.37,1.46-1.75,2.5Z"/>
        <path class="cls-6" d="M94.65,52.97c1.03-2.52,3.05-4.62,5.53-5.75.77-.35,1.71-.6,2.45-.18.57.32.88.99.94,1.64.06.65-.08,1.3-.22,1.94,1.22-1.62,2.83-2.69,4.76-3.32,1.18-.39,2.56-.52,3.6.16.65.43,1.09,1.16,1.16,1.94.07.77-.23,1.57-.78,2.12.3-.84.04-1.75-.5-2.46s-1.45-1.13-2.34-1.07c-.84.06-1.6.5-2.3.98-1.81,1.24-3.41,2.78-4.71,4.54.32-.89.47-1.82.39-2.76-.08-.94-.7-1.9-1.63-2.06-.91-.16-1.76.46-2.48,1.05-1.27,1.04-2.59,2.2-3.87,3.24Z"/>
        <path class="cls-6" d="M98.04,67.01c-.4-2.31.71-4.81,2.7-6.06.72-.45,1.68-.73,2.39-.27.4.26.64.72.74,1.19.1.47.07.95.05,1.43.72-1.64,1.56-3.33,3.05-4.32,1.49-.99,3.57-1.25,5.06-.26-4.18.77-7.7,4.13-8.48,8.31-.18-.69-.44-1.16-.62-1.85-.19-.73-.41-1.51-1.02-1.95-.62-.44-1.5-.39-2.15,0-.65.39-1.08,1.08-1.32,1.8-.24.72-.32,1.22-.39,1.98Z"/>
        <path class="cls-6" d="M135.65,67.57c.77-.95,2.05-1.46,3.26-1.31,1.21.15,2.32.96,2.84,2.06.51,1.09.45,2.39.06,3.54-.39,1.15-1.07,2.17-1.77,3.15.3-.71,1.5-1.01,2.18-.64.68.36,1.03,1.16,1.04,1.93,0,.77-.28,1.51-.63,2.19-1.72,3.42-4.99,6.03-8.72,6.93,2.62-1.12,4.65-3.24,6.13-5.68.45-.74.84-1.62.62-2.46-.18-.67-.78-1.21-1.46-1.33-.69-.11-1.43.2-1.82.78,1.03-1.13,1.6-2.45,2.11-3.9.31-.9.52-1.85.4-2.8-.11-.94-.57-1.88-1.36-2.41-.79-.53-2.15-.66-2.89-.06Z"/>
        <path class="cls-6" d="M126.62,99.32c-.49-.6-1.24-.97-2.01-1.07.49.44.68,1.06.68,1.71-.01,1.07-.77,2.01-1.7,2.55-.92.54-1.95.98-3,1.17.64.08,1.3.17,1.87.46.58.29,1.06.84,1.1,1.49.05.76-.51,1.41-1.1,1.89-1.69,1.37-3.96,2.05-6.12,1.81,2.66.8,5.73.04,7.71-1.9.6-.59,1.14-1.37,1.06-2.21-.05-.55-.38-1.07-.85-1.35-.22-.13-.46-.23-.71-.28.59-.05,1.17-.13,1.71-.34.82-.3,1.57-.91,1.82-1.75.22-.74.01-1.59-.48-2.19Z"/>
        <path class="cls-5" d="M29.54,73.72c-.6-.5-1.19-1.06-1.51-1.78-.32-.72-.33-1.62.17-2.23.5-.61,1.41-.78,2.18-.57s1.42.71,1.99,1.26c-.7-.3-1.43-.44-2.19-.51-.28-.03-.57-.03-.84.04-.27.07-.53.24-.66.48-.23.44-.02.97.19,1.42.31.64.36,1.27.67,1.91Z"/>
      </g>
      <path class="cls-1" d="M92.83,101.42c.74,2.6,1,5.32.77,8.01-.13,1.52-2.32,1.94-2.82.5-.04-.09-.06-.19-.07-.28-.53,1.09-.3,2.4.08,3.56.38,1.15.89,2.3.89,3.52,0,1.22-.73,2.55-1.94,2.74-.55.09-1.09-.21-1.44-.65.08,5.84-2.84,11.67-7.63,15.02-2.46,1.72-8.75,3.24-15.29,2.62,9.37-5.03,16.2-14.88,17.04-25.54,1.19.56,2.02-1.26,2.04-2.58.05-2.81-.11-5.63-.47-8.42.87.47,2-.12,2.48-.98.47-.87.46-1.91.44-2.89-.42-16.61-2.22-34.09-11.85-47.62,2.08-1.91,1.91-5.41.4-7.79-1.52-2.38-4.03-3.92-6.46-5.36,2.56-.23,3.44-3.94,2-6.07-1.44-2.12-4.1-2.98-6.56-3.7,1.59.42,3.18-1.08,3.43-2.7.24-1.63-.49-3.24-1.36-4.63-3.28-5.24-8.92-8.9-14.99-9.93.13-.06.26-.12.39-.17,2.89-1.17,6.14-1.05,9.08.02,5.79,2.1,9.64,6.9,13.15,11.77,1.01,1.39.26,3.49-1.45,3.7-.24.03-.48.03-.72-.02,3.25.81,6.11,2.94,7.96,5.72.39.59.57,1.23.57,1.86,0,1.66-1.25,3.2-3.13,3.28,1.76.92,3.59,1.9,4.73,3.53,1.13,1.63,1.31,4.11-.15,5.45,7.67,14.17,12.31,29.98,13.51,46.05-.4-.23-.8-.47-1.21-.7.48,2.87.95,5.74,1.42,8.6.2,1.17.35,2.49-.38,3.42-.56.72-1.61.97-2.46.66Z"/>
    </g>
  </g>
</svg>